<svg xmlns="http://www.w3.org/2000/svg" xmlns:xlink="http://www.w3.org/1999/xlink" zoomAndPan="magnify" preserveAspectRatio="xMidYMid meet" version="1.0" viewBox="36.01 144.44 302.86 86.25"><defs><g/><clipPath id="08b74053c7"><path d="M 77 209 L 161 209 L 161 230.6875 L 77 230.6875 Z M 77 209 " clip-rule="nonzero"/></clipPath><clipPath id="3e05714ddd"><path d="M 74.167969 144.4375 L 163.417969 144.4375 L 163.417969 228 L 74.167969 228 Z M 74.167969 144.4375 " clip-rule="nonzero"/></clipPath></defs><g clip-path="url(#08b74053c7)"><path fill="#000000" d="M 77.125 209.941406 L 160.464844 209.941406 L 160.464844 223.414062 C 160.464844 227.398438 157.21875 230.644531 153.230469 230.644531 L 84.359375 230.644531 C 80.371094 230.644531 77.125 227.398438 77.125 223.414062 Z M 77.125 209.941406 " fill-opacity="1" fill-rule="nonzero"/><path fill="#ffffff" d="M 77.125 209.941406 L 160.464844 209.941406 L 160.464844 223.414062 C 160.464844 227.398438 157.21875 230.644531 153.230469 230.644531 L 84.359375 230.644531 C 80.371094 230.644531 77.125 227.398438 77.125 223.414062 Z M 77.125 209.941406 " fill-opacity="0.3" fill-rule="nonzero"/></g><g clip-path="url(#3e05714ddd)"><path fill="#064a75" d="M 163.417969 154.074219 C 163.417969 148.761719 159.136719 144.484375 153.820312 144.484375 L 83.769531 144.484375 C 78.453125 144.484375 74.167969 148.761719 74.167969 154.074219 L 74.167969 217.757812 C 74.167969 223.070312 78.453125 227.347656 83.769531 227.347656 L 153.820312 227.347656 C 159.136719 227.347656 163.417969 223.070312 163.417969 217.757812 Z M 163.417969 154.074219 " fill-opacity="1" fill-rule="evenodd"/></g><path fill="#1b75bb" d="M 160.464844 156.1875 L 160.464844 215.644531 C 160.464844 220.5625 156.480469 224.59375 151.507812 224.59375 C 151.507812 224.59375 151.507812 224.59375 151.457031 224.59375 L 86.082031 224.59375 C 81.160156 224.59375 77.125 220.613281 77.125 215.695312 C 77.125 215.695312 77.125 215.695312 77.125 215.644531 L 77.125 156.1875 C 77.125 151.269531 81.109375 147.238281 86.035156 147.238281 C 86.035156 147.238281 86.082031 147.238281 86.082031 147.238281 L 151.507812 147.238281 C 156.429688 147.238281 160.464844 151.222656 160.464844 156.1875 Z M 160.464844 156.1875 " fill-opacity="1" fill-rule="evenodd"/><path fill="#000000" d="M 160.464844 215.054688 L 160.464844 215.695312 C 160.464844 220.613281 156.480469 224.644531 151.507812 224.644531 C 151.507812 224.644531 151.507812 224.644531 151.457031 224.644531 L 86.082031 224.644531 C 81.160156 224.644531 77.125 220.660156 77.125 215.742188 C 77.125 215.742188 77.125 215.742188 77.125 215.695312 L 77.125 158.203125 C 77.125 158.203125 81.601562 211.21875 87.609375 212.742188 C 87.609375 212.742188 101.785156 218.941406 155.347656 216.578125 C 157.117188 216.332031 158.839844 215.792969 160.464844 215.054688 Z M 160.464844 215.054688 " fill-opacity="0.12" fill-rule="evenodd"/><path fill="#ffffff" d="M 138.019531 174.238281 L 99.570312 174.238281 C 99.570312 163.859375 107.988281 155.449219 118.425781 155.402344 L 119.214844 155.402344 C 129.601562 155.449219 138.019531 163.859375 138.019531 174.238281 Z M 138.019531 174.238281 " fill-opacity="1" fill-rule="evenodd"/><path fill="#ec1c24" d="M 120.34375 162.484375 L 120.34375 174.238281 L 117.195312 174.238281 L 117.195312 162.484375 C 117.195312 161.597656 117.882812 160.910156 118.769531 160.910156 C 119.65625 160.910156 120.34375 161.597656 120.34375 162.484375 Z M 120.34375 162.484375 " fill-opacity="1" fill-rule="nonzero"/><path fill="#000000" d="M 138.019531 174.238281 L 135.902344 174.238281 C 135.949219 165.433594 128.761719 158.253906 119.953125 158.253906 L 119.261719 158.253906 C 110.449219 158.253906 103.261719 165.433594 103.261719 174.238281 L 99.570312 174.238281 C 99.570312 163.859375 107.988281 155.449219 118.425781 155.402344 L 119.214844 155.402344 C 129.601562 155.449219 138.019531 163.859375 138.019531 174.238281 Z M 138.019531 174.238281 " fill-opacity="0.17" fill-rule="evenodd"/><path stroke-linecap="butt" transform="matrix(0.998509, 0, 0, 0.998509, 37.156774, 184.488679)" fill="none" stroke-linejoin="miter" d="M 13.018887 28.276138 L 14.740204 28.413061 L 17.150047 28.244841 L 19.180418 27.834072 L 19.790703 27.489809 L 20.514438 27.243348 L 21.101251 26.969502 L 22.787359 25.768493 L 23.741907 24.802208 L 24.539972 23.769418 L 25.263707 22.537112 L 26.15175 19.919928 L 25.940497 19.305731 L 25.263707 18.85193 L 23.331138 18.996677 L 22.642611 18.894963 L 21.957997 18.930171 L 21.26947 18.894963 L 20.47923 19.305731 L 19.93545 19.853423 L 19.591187 20.506741 L 18.800946 21.40652 L 18.249342 21.883794 L 17.736859 22.08331 L 16.528026 22.74054 L 14.704995 22.846167 L 13.707414 22.74054 L 12.475108 22.294563 L 11.274098 21.672542 L 10.276517 20.784499 L 9.521485 19.575665 L 9.278936 18.894963 L 9.032475 18.409864 L 8.868167 17.787843 L 8.766453 17.032811 L 8.766453 14.943759 L 9.001178 13.566706 L 9.521485 12.326575 L 9.865748 11.669345 L 10.687286 10.714797 L 11.508823 10.061479 L 12.439899 9.541172 L 14.740204 9.23603 L 16.215059 9.306447 L 17.283058 9.615502 L 17.905079 9.850227 L 18.382353 10.225787 L 19.379934 11.22728 L 19.759406 11.747587 L 20.412724 12.393081 L 21.202965 12.768641 L 21.821074 12.702135 L 22.544809 12.737344 L 23.233336 12.702135 L 24.195708 12.811674 L 25.220674 12.702135 L 25.807487 12.436114 L 26.050036 11.747587 L 25.842695 10.984731 L 25.60797 10.370534 L 25.396718 9.646798 L 25.017246 9.095195 L 24.708191 8.547503 L 24.230917 7.960691 L 23.851445 7.307373 L 22.889073 6.309792 L 20.545735 4.831024 L 17.247849 3.731729 L 16.594531 3.700432 L 15.906004 3.598718 L 13.781743 3.563509 L 10.444736 4.220739 L 7.901883 5.417837 L 6.904301 6.172869 L 5.425534 7.518625 L 4.502282 8.684426 L 3.848964 9.682007 L 2.984394 11.60284 L 2.640131 13.015102 L 2.295868 15.968725 L 2.50712 18.47637 L 2.984394 20.440235 L 4.470986 23.425155 L 5.871511 24.939131 L 7.424608 26.280975 L 8.899464 27.067304 L 10.444736 27.724534 L 11.062846 27.865369 L 11.751372 28.100094 L 12.373393 28.244841 Z M 29.199263 27.036008 L 29.477021 27.755831 L 30.267261 28.068797 L 30.920579 28.068797 L 31.988578 27.967083 L 32.986159 27.99838 L 33.705982 28.100094 L 34.429718 28.033589 L 35.18475 27.724534 L 35.462508 27.036008 L 35.493804 26.347481 L 35.39209 25.592449 L 35.462508 24.978252 L 35.39209 24.289725 L 35.462508 23.636407 L 35.427299 22.881375 L 35.493804 22.161552 L 35.39209 19.442654 L 35.736353 18.718919 L 36.417056 18.30815 L 37.140791 18.30815 L 37.7589 18.374656 L 39.789271 18.374656 L 40.477798 18.30815 L 41.166325 18.374656 L 41.819643 18.374656 L 42.43384 18.718919 L 42.778103 19.407446 L 42.887641 21.504322 L 42.778103 22.161552 L 42.918938 24.594868 L 42.778103 25.623746 L 42.887641 26.969502 L 43.22408 27.689325 L 43.908695 28.033589 L 44.597221 27.967083 L 45.630011 28.068797 L 48.004646 28.068797 L 48.693172 27.689325 L 49.072645 27.036008 L 49.205655 25.623746 L 49.205655 20.095972 L 49.072645 18.785424 L 49.103941 18.096898 L 49.037436 17.377074 L 49.037436 16.688548 L 49.13915 15.968725 L 49.103941 14.666001 L 49.170447 13.910969 L 49.072645 10.538753 L 49.236952 7.686845 L 49.103941 7.029615 L 49.037436 6.384121 L 49.170447 5.695594 L 49.103941 5.007068 L 48.759678 4.318541 L 47.695591 3.97819 L 45.942978 3.942981 L 44.843683 4.044695 L 44.155156 4.044695 L 43.122366 4.35375 L 42.844608 5.351331 L 42.918938 9.095195 L 42.778103 9.682007 L 42.778103 11.669345 L 42.398631 12.357872 L 41.819643 12.702135 L 40.446501 12.702135 L 39.82448 12.63563 L 36.491385 12.670839 L 35.771562 12.357872 L 35.493804 11.704554 L 35.493804 9.646798 L 35.56031 9.028689 L 35.462508 5.629089 L 35.493804 5.042277 L 35.083036 4.318541 L 34.018949 3.97819 L 31.988578 4.044695 L 31.300051 3.97819 L 30.642821 4.044695 L 29.578735 4.35375 L 29.199263 4.940562 L 29.101461 5.695594 L 29.101461 6.352824 L 29.167966 7.107856 L 29.066252 7.75335 L 29.234471 9.815018 L 29.132757 10.57005 L 29.199263 11.160775 L 29.066252 11.845389 L 29.199263 13.946178 L 29.132757 14.666001 L 29.132757 16.653339 L 29.234471 17.310569 L 29.167966 18.374656 L 29.234471 19.164896 L 29.132757 20.784499 L 29.199263 21.539531 L 29.101461 22.228057 L 29.199263 22.846167 L 29.132757 23.534693 Z M 61.192278 28.276138 L 62.843177 28.413061 L 64.564493 28.342643 L 65.941547 28.033589 L 66.66137 27.755831 L 67.349896 27.587611 L 67.897588 27.243348 L 68.515697 26.969502 L 69.063389 26.59003 L 70.616486 25.212977 L 70.992046 24.594868 L 71.438023 24.082385 L 71.63754 23.393858 L 71.981803 22.81487 L 72.224352 22.161552 L 72.470813 18.687622 L 72.369099 15.898307 L 72.50211 15.178484 L 72.50211 14.556463 L 72.369099 13.879672 L 72.326066 13.222442 L 72.400396 12.502619 L 72.369099 11.536334 L 72.435604 10.472248 L 72.400396 9.717216 L 72.50211 9.059986 L 72.400396 8.371459 L 72.435604 5.586056 L 72.326066 5.007068 L 72.056132 4.252036 L 70.956837 3.942981 L 67.729369 3.907773 L 66.9626 4.220739 L 66.622249 4.975771 L 66.66137 8.340163 L 66.58704 9.028689 L 66.622249 10.370534 L 66.551832 11.090357 L 66.66137 11.814092 L 66.551832 14.525166 L 66.696579 15.143275 L 66.622249 15.898307 L 66.66137 17.142349 L 66.58704 17.830876 L 66.622249 19.575665 L 66.485326 20.682785 L 66.176272 21.328278 L 65.863305 21.817289 L 65.319525 22.32586 L 63.942472 22.771837 L 63.011396 22.846167 L 61.880804 22.771837 L 61.266607 22.603617 L 60.503751 22.228057 L 59.991268 21.78208 L 59.5805 21.296982 L 59.369247 20.573246 L 59.302742 14.525166 L 59.201028 13.836639 L 59.169731 11.704554 L 59.236236 11.090357 L 59.236236 8.340163 L 59.134522 7.342581 L 59.134522 6.685351 L 59.302742 5.664298 L 59.302742 4.940562 L 58.927182 4.287245 L 58.101732 3.97819 L 54.494792 3.942981 L 53.806265 4.318541 L 53.49721 5.007068 L 53.49721 7.072648 L 53.321167 7.651636 L 53.462002 9.095195 L 53.352463 10.405742 L 53.528507 12.46741 L 53.395496 13.112904 L 53.49721 13.879672 L 53.430705 14.525166 L 53.462002 15.213693 L 53.395496 15.86701 L 53.49721 17.244064 L 53.462002 19.7165 L 53.563716 20.717993 L 53.563716 21.437817 L 53.774968 22.126343 L 53.87277 22.771837 L 54.076199 23.425155 L 54.764725 24.594868 L 55.695801 25.733284 L 56.141779 26.179261 L 57.307579 26.867788 L 57.827886 27.278557 L 58.481204 27.556315 L 59.271445 27.79104 L 59.780016 28.068797 L 60.535048 28.100094 Z M 76.586325 26.969502 L 76.961885 27.755831 L 77.615202 28.068797 L 88.995452 27.931875 L 90.294264 27.755831 L 91.428768 27.313765 L 92.735403 26.554821 L 93.181381 26.21447 L 93.736897 25.701987 L 94.523225 24.559659 L 94.836192 23.914165 L 94.969203 23.327353 L 95.246961 22.638826 L 95.278257 19.88472 L 95.145247 19.239226 L 94.902697 18.519403 L 94.280676 17.310569 L 93.803402 16.731581 L 93.290919 16.211274 L 92.981865 15.456242 L 93.114875 14.767715 L 93.494348 14.079188 L 93.905116 13.492376 L 94.390215 11.023852 L 94.355006 10.02627 L 93.979446 8.750931 L 93.635182 8.097613 L 93.42393 7.45212 L 92.602393 6.352824 L 92.117294 5.863814 L 91.092329 5.143991 L 89.816989 4.455464 L 87.896157 4.009487 L 77.548697 3.942981 L 76.86017 4.252036 L 76.551116 4.975771 L 76.617621 6.450627 L 76.551116 7.45212 L 76.684127 9.748513 L 76.586325 10.472248 L 76.65283 11.192071 L 76.586325 11.845389 L 76.617621 12.569124 L 76.551116 13.222442 L 76.551116 15.968725 L 76.65283 16.688548 L 76.586325 17.341866 L 76.586325 18.718919 L 76.65283 19.372237 L 76.586325 22.192849 L 76.684127 23.601199 L 76.551116 25.658954 Z M 83.631986 13.257651 L 82.802625 12.979893 L 82.458361 12.291367 L 82.599196 11.704554 L 82.599196 11.05906 L 82.532691 10.405742 L 82.912163 9.815018 L 83.631986 9.439458 L 86.108335 9.541172 L 87.172421 9.748513 L 87.587102 10.02627 L 88.029167 10.503545 L 88.130882 11.43462 L 87.962662 12.46741 L 87.37585 13.015102 L 86.210049 13.257651 Z M 83.522448 22.537112 L 82.94346 22.259354 L 82.5679 21.539531 L 82.599196 20.952718 L 82.532691 20.295488 L 82.5679 19.618698 L 82.802625 18.996677 L 83.491151 18.652414 L 87.1333 18.652414 L 88.095673 18.820633 L 88.61598 19.196193 L 89.128463 19.685203 L 89.194968 20.639752 L 89.128463 21.539531 L 88.682485 22.016805 L 88.064376 22.396277 L 86.210049 22.572321 Z M 98.572231 26.969502 L 98.951703 27.755831 L 99.605021 28.068797 L 110.985271 27.931875 L 112.284082 27.755831 L 113.418586 27.313765 L 114.725222 26.554821 L 115.1712 26.21447 L 115.726715 25.701987 L 116.513044 24.559659 L 116.826011 23.914165 L 116.959022 23.327353 L 117.23678 22.638826 L 117.268076 19.88472 L 117.135065 19.239226 L 116.892516 18.519403 L 116.270495 17.310569 L 115.793221 16.731581 L 115.280738 16.211274 L 114.971683 15.456242 L 115.104694 14.767715 L 115.484166 14.079188 L 115.894935 13.492376 L 116.380033 11.023852 L 116.344825 10.02627 L 115.969265 8.750931 L 115.625001 8.097613 L 115.413749 7.45212 L 114.592211 6.352824 L 114.107113 5.863814 L 113.082147 5.143991 L 111.806808 4.455464 L 109.885975 4.009487 L 99.538516 3.942981 L 98.849989 4.252036 L 98.540935 4.975771 L 98.60744 6.450627 L 98.540935 7.45212 L 98.673945 9.748513 L 98.572231 10.472248 L 98.642649 11.192071 L 98.572231 11.845389 L 98.60744 12.569124 L 98.540935 13.222442 L 98.540935 15.968725 L 98.642649 16.688548 L 98.572231 17.341866 L 98.572231 18.718919 L 98.642649 19.372237 L 98.572231 22.192849 L 98.673945 23.601199 L 98.540935 25.658954 Z M 105.621805 13.257651 L 104.792443 12.979893 L 104.44818 12.291367 L 104.589015 11.704554 L 104.589015 11.05906 L 104.52251 10.405742 L 104.901982 9.815018 L 105.621805 9.439458 L 108.098154 9.541172 L 109.16224 9.748513 L 109.573009 10.02627 L 110.018986 10.503545 L 110.1207 11.43462 L 109.952481 12.46741 L 109.365668 13.015102 L 108.199868 13.257651 Z M 105.512267 22.537112 L 104.933278 22.259354 L 104.557718 21.539531 L 104.589015 20.952718 L 104.52251 20.295488 L 104.557718 19.618698 L 104.792443 18.996677 L 105.48097 18.652414 L 109.123119 18.652414 L 110.085492 18.820633 L 110.605799 19.196193 L 111.118282 19.685203 L 111.184787 20.639752 L 111.118282 21.539531 L 110.672304 22.016805 L 110.054195 22.396277 L 108.199868 22.572321 Z M 125.960725 27.036008 L 126.336285 27.62282 L 126.989603 27.967083 L 128.225821 28.033589 L 128.914347 27.967083 L 129.634171 27.99838 L 130.600455 27.967083 L 131.633245 27.62282 L 131.977508 26.934293 L 131.977508 26.347481 L 131.907091 25.623746 L 131.9423 24.978252 L 131.907091 24.360143 L 132.075311 22.259354 L 131.977508 21.539531 L 132.075311 19.540456 L 131.9423 18.930171 L 132.110519 17.93259 L 133.319353 15.831802 L 133.585375 15.178484 L 133.964847 14.599496 L 134.829417 13.457167 L 138.780621 6.931813 L 139.19139 6.41933 L 139.433939 5.797309 L 139.915125 4.975771 L 139.813411 4.142498 L 139.160093 3.876476 L 138.471566 3.97819 L 137.129722 3.876476 L 136.405986 3.97819 L 135.107175 3.97819 L 134.449945 3.907773 L 133.585375 4.252036 L 132.865551 4.89753 L 132.286563 6.075067 L 131.832761 6.728384 L 131.633245 7.373878 L 130.843004 8.516206 L 130.322697 9.748513 L 129.188193 11.60284 L 128.710919 11.669345 L 127.92459 10.437039 L 127.611624 9.815018 L 127.404283 9.126491 L 125.682967 6.106363 L 125.303495 5.519551 L 125.029649 4.831024 L 124.274617 4.287245 L 123.417871 3.907773 L 118.875942 3.97819 L 118.12091 4.177706 L 118.054405 4.940562 L 118.398668 5.7621 L 122.107323 11.638049 L 122.385081 12.224861 L 125.448242 17.032811 L 125.714263 17.93259 L 125.894219 18.930171 L 125.859011 21.641245 L 125.925516 22.32586 L 125.960725 22.983089 L 125.894219 23.601199 L 125.859011 24.903922 L 126.02723 26.312272 Z M 158.434926 28.100094 L 159.45598 28.100094 L 160.523978 27.967083 L 161.212505 27.967083 L 162.210086 27.654117 L 163.618436 27.411567 L 165.238039 26.723041 L 167.538343 25.18168 L 169.224451 23.014386 L 169.568714 22.32586 L 169.979483 21.78208 L 170.527175 20.440235 L 170.703219 19.786918 L 170.836229 19.063182 L 171.04357 18.47637 L 171.145284 17.787843 L 171.145284 17.06802 L 171.246998 15.968725 L 171.211789 14.975055 L 170.734515 12.26007 L 170.288538 10.949522 L 170.014692 10.304028 L 168.848891 8.473173 L 167.02586 6.450627 L 165.273247 5.284826 L 164.616017 4.89753 L 163.931403 4.764519 L 163.340678 4.486761 L 162.620855 4.318541 L 160.598308 4.009487 L 152.762406 3.942981 L 152.140384 4.044695 L 151.451858 4.009487 L 150.696826 4.318541 L 150.387771 5.042277 L 150.352563 24.258429 L 150.419068 24.903922 L 150.419068 26.656535 L 150.763331 27.724534 L 151.451858 28.068797 L 152.140384 27.99838 L 156.334137 28.068797 L 157.022664 27.967083 Z M 158.325388 22.470607 L 157.668158 22.396277 L 156.881829 22.016805 L 156.604071 21.363487 L 156.568862 20.784499 L 156.604071 19.372237 L 156.47106 17.686129 L 156.604071 15.968725 L 156.537566 11.22728 L 156.604071 10.648292 L 156.948335 9.850227 L 158.055454 9.615502 L 159.499013 9.580293 L 160.48877 9.682007 L 161.830614 10.061479 L 162.452635 10.370534 L 162.965118 10.746094 L 163.485425 11.22728 L 163.997908 11.845389 L 164.342171 12.436114 L 164.651226 13.046399 L 165.195006 16.074351 L 164.862479 18.47637 L 164.275666 19.751709 L 163.000327 21.195268 L 161.830614 21.9503 L 160.833033 22.259354 L 159.358178 22.427574 Z M 174.611389 27.000799 L 175.057367 27.654117 L 175.710685 28.033589 L 183.480082 27.967083 L 184.094279 28.068797 L 186.191155 27.967083 L 188.288032 28.100094 L 188.94135 28.033589 L 189.665085 27.689325 L 189.97414 27.036008 L 190.040645 26.378778 L 190.009348 24.258429 L 190.075854 23.601199 L 189.629876 22.916584 L 188.600998 22.572321 L 184.05907 22.501903 L 183.405752 22.603617 L 182.65072 22.537112 L 181.895688 22.603617 L 181.171953 22.192849 L 180.862898 21.128762 L 180.898107 19.442654 L 181.207162 18.718919 L 181.829183 18.343359 L 183.171027 18.343359 L 183.859554 18.272941 L 185.678672 18.374656 L 186.601924 18.30815 L 187.325659 18.374656 L 187.943769 18.343359 L 188.632295 17.963887 L 188.976558 17.310569 L 189.043064 14.599496 L 188.976558 13.910969 L 188.667504 13.257651 L 188.088516 12.878179 L 186.711462 12.846882 L 186.022936 12.913388 L 185.303112 12.913388 L 184.512872 12.846882 L 181.793974 12.878179 L 181.207162 12.502619 L 180.796393 11.880598 L 180.729887 10.816511 L 181.074151 9.815018 L 182.138237 9.505963 L 188.734009 9.470755 L 189.453833 9.095195 L 189.833305 8.473173 L 189.766799 7.072648 L 189.665085 6.41933 L 189.700294 5.664298 L 189.798096 5.007068 L 189.453833 4.318541 L 188.734009 4.009487 L 185.987727 3.97819 L 185.369618 4.044695 L 184.681091 3.942981 L 183.171027 4.009487 L 182.482501 3.942981 L 181.140656 3.97819 L 180.518635 3.907773 L 176.019739 4.009487 L 175.022158 4.252036 L 174.677895 5.007068 L 174.7444 6.384121 L 174.611389 7.373878 L 174.7444 9.126491 L 174.677895 9.850227 L 174.7444 10.472248 L 174.7444 16.622042 L 174.646598 17.341866 L 174.7444 18.687622 L 174.677895 20.060763 L 174.779609 20.784499 L 174.713104 21.539531 L 174.7444 22.192849 L 174.646598 22.81487 L 174.713104 23.601199 L 174.713104 24.289725 L 174.779609 25.623746 L 174.7444 26.312272 Z M 201.104016 28.276138 L 202.105509 28.377852 L 203.200892 28.342643 L 206.569196 27.689325 L 208.353106 26.723041 L 209.452401 25.968009 L 210.418686 24.868714 L 211.107212 23.769418 L 211.38497 23.151309 L 211.584486 22.470607 L 211.686201 21.848585 L 211.721409 19.7165 L 211.619695 19.027974 L 211.451476 18.374656 L 210.762949 17.107141 L 209.941411 16.043054 L 209.354599 15.554044 L 207.531568 14.732506 L 204.714869 14.04398 L 201.240939 13.601914 L 199.79738 13.081607 L 199.284897 12.811674 L 198.729381 12.26007 L 198.698085 11.325082 L 198.795887 10.437039 L 199.175359 9.959765 L 199.762171 9.505963 L 200.239446 9.306447 L 200.861467 9.1617 L 203.060057 9.095195 L 203.815089 9.372953 L 204.335396 9.783721 L 205.469901 10.984731 L 206.533987 11.325082 L 208.799083 11.403324 L 209.421104 11.325082 L 210.074422 11.403324 L 210.72774 10.984731 L 211.040707 10.335325 L 210.762949 8.99348 L 210.207433 7.75335 L 209.765368 7.205659 L 209.421104 6.654055 L 208.975127 6.141572 L 206.776536 4.631508 L 204.879176 3.97819 L 204.159353 3.841267 L 203.545156 3.766938 L 202.790124 3.598718 L 200.861467 3.633927 L 198.150393 4.177706 L 197.532284 4.420255 L 196.976768 4.764519 L 196.432989 4.975771 L 195.744462 5.38654 L 195.263276 5.832517 L 194.645167 6.243286 L 194.265695 6.830099 L 193.811893 7.272164 L 193.577168 7.894185 L 193.232905 8.441877 L 192.755631 10.437039 L 192.790839 12.737344 L 193.025564 13.699716 L 193.479366 14.900726 L 194.3322 16.043054 L 195.298485 16.931097 L 196.499494 17.654832 L 198.451624 18.30815 L 199.695666 18.585908 L 202.516278 18.785424 L 203.134387 18.894963 L 203.815089 18.930171 L 205.059132 19.442654 L 205.536406 19.853423 L 205.71245 20.74929 L 205.501197 21.641245 L 204.957418 22.126343 L 204.401902 22.427574 L 203.134387 22.81487 L 202.172015 22.846167 L 201.139225 22.771837 L 200.348984 22.572321 L 199.828677 22.32586 L 199.218392 21.9503 L 198.698085 21.473025 L 198.185602 20.784499 L 197.497075 20.506741 L 194.879892 20.440235 L 194.199189 20.506741 L 193.510663 20.471532 L 192.822136 20.784499 L 192.579587 21.504322 L 192.646092 22.259354 L 192.790839 22.881375 L 193.334619 24.258429 L 194.199189 25.322515 L 195.188946 26.312272 L 195.775759 26.691744 L 198.252107 27.834072 L 199.007139 27.931875 L 199.660457 28.1666 Z M 214.021714 27.000799 L 214.365977 27.724534 L 215.04668 27.967083 L 225.257217 28.033589 L 225.914447 27.689325 L 226.290007 27.067304 L 226.290007 26.312272 L 226.223501 25.701987 L 226.325215 23.601199 L 225.847941 23.014386 L 223.539812 22.294563 L 223.16034 21.606036 L 223.226846 18.785424 L 223.093835 17.412283 L 223.226846 15.968725 L 223.16034 14.943759 L 223.226846 13.879672 L 223.16034 13.222442 L 223.226846 12.533916 L 223.16034 11.814092 L 223.16034 10.370534 L 223.539812 9.748513 L 224.19313 9.372953 L 224.948162 9.337744 L 225.60148 8.962184 L 225.980952 8.304954 L 225.980952 6.274583 L 226.047457 5.664298 L 225.980952 4.975771 L 225.703194 4.287245 L 224.603899 3.97819 L 220.241926 3.942981 L 219.486894 4.009487 L 217.390018 3.97819 L 216.732788 4.009487 L 215.390943 3.942981 L 214.635911 4.287245 L 214.256439 5.007068 L 214.256439 5.664298 L 214.189934 6.243286 L 214.189934 6.998318 L 214.256439 7.686845 L 214.256439 8.340163 L 214.600702 8.99348 L 216.701491 9.717216 L 217.143556 10.335325 L 217.045754 13.257651 L 217.077051 13.836639 L 217.178765 14.634704 L 217.143556 16.043054 L 217.077051 16.731581 L 217.221798 18.065601 L 217.045754 18.754128 L 217.178765 20.228983 L 217.11226 21.570827 L 216.767996 22.32586 L 214.5029 23.049595 L 214.092132 23.702913 L 214.021714 24.360143 Z M 239.861023 28.413061 L 240.75689 28.444357 L 242.611217 28.276138 L 243.299744 28.135303 L 243.956974 28.100094 L 244.535962 27.931875 L 247.074904 26.832579 L 247.563914 26.42181 L 248.694506 25.701987 L 249.695999 24.633989 L 250.795295 23.014386 L 251.581623 21.437817 L 252.027601 19.962961 L 252.06281 19.305731 L 252.27015 18.617205 L 252.403161 16.000021 L 252.305359 15.319319 L 251.89459 14.634704 L 250.893097 14.321738 L 242.266954 14.321738 L 241.202867 14.70121 L 240.893813 15.354528 L 240.823395 17.93259 L 240.960318 18.585908 L 241.167658 19.164896 L 241.824888 19.473951 L 242.470382 19.473951 L 243.092403 19.540456 L 245.154071 19.442654 L 245.631345 19.818214 L 245.776092 20.405027 L 245.498334 20.952718 L 244.500753 21.915091 L 243.956974 22.192849 L 242.646426 22.603617 L 241.957899 22.705332 L 240.960318 22.74054 L 239.892319 22.670123 L 239.282034 22.537112 L 238.660013 22.294563 L 237.419883 21.641245 L 236.387093 20.815795 L 236.007621 20.228983 L 235.741599 19.649995 L 235.362127 19.027974 L 235.119578 18.374656 L 234.908325 14.943759 L 235.287798 13.699716 L 235.428633 13.015102 L 235.941115 11.747587 L 236.840895 10.781302 L 237.971487 9.991062 L 238.550475 9.717216 L 239.892319 9.271238 L 240.858604 9.23603 L 242.646426 9.439458 L 243.299744 9.615502 L 245.02106 10.679588 L 245.357499 11.22728 L 246.120356 11.778884 L 246.875388 12.123147 L 250.239779 12.123147 L 250.893097 12.048817 L 251.483821 11.845389 L 251.718546 11.090357 L 250.619251 8.547503 L 250.138065 8.062405 L 249.273494 6.963109 L 248.283737 5.965528 L 245.944312 4.52197 L 245.18928 4.318541 L 244.633764 4.075992 L 243.956974 3.97819 L 243.190205 3.766938 L 239.794517 3.598718 L 237.693729 3.942981 L 235.084369 4.866233 L 234.46626 5.175287 L 232.744944 6.352824 L 231.712154 7.307373 L 231.266176 7.894185 L 230.921913 8.441877 L 230.413342 8.926975 L 230.03387 9.580293 L 228.969783 12.189652 L 228.934575 12.811674 L 228.559015 14.321738 L 228.62552 16.043054 L 228.559015 16.997602 L 228.590311 17.721338 L 229.1693 20.37373 L 229.893035 22.259354 L 230.268595 22.916584 L 231.512637 24.457945 L 232.467186 25.459438 L 234.673601 26.934293 L 235.287798 27.243348 L 237.216454 27.931875 L 239.137287 28.342643 Z M 273.195882 27.446776 L 274.185639 27.900578 L 275.081506 28.1666 L 275.871747 27.79104 L 276.180802 27.067304 L 276.349021 17.721338 L 276.21601 16.762877 L 276.282516 16.000021 L 276.149505 11.880598 L 276.251219 10.503545 L 276.180802 9.850227 L 276.180802 8.473173 L 276.317725 7.792471 L 276.251219 6.763593 L 276.317725 4.975771 L 275.906956 4.35375 L 275.151924 4.009487 L 274.463397 3.942981 L 273.806167 3.942981 L 273.051135 4.009487 L 272.331312 3.907773 L 271.717115 3.97819 L 271.028588 3.942981 L 270.199227 4.287245 L 269.854963 5.007068 L 269.823667 11.258577 L 269.964502 11.982312 L 269.964502 12.63563 L 269.823667 13.359365 L 269.854963 14.732506 L 269.686744 15.280198 L 269.20947 15.143275 L 267.691581 13.601914 L 267.179099 13.191146 L 265.970265 11.947103 L 265.426485 11.536334 L 265.047013 11.05906 L 264.32719 10.304028 L 263.259191 9.404249 L 262.883631 8.891766 L 262.226401 8.441877 L 261.882138 7.929394 L 261.295326 7.518625 L 260.85326 6.931813 L 258.998933 5.042277 L 257.62188 4.111201 L 256.698628 3.841267 L 255.869266 4.252036 L 255.423289 4.89753 L 255.489794 9.717216 L 255.423289 10.405742 L 255.525003 11.814092 L 255.454586 12.436114 L 255.489794 13.155937 L 255.38808 13.879672 L 255.525003 18.785424 L 255.454586 19.407446 L 255.454586 20.060763 L 255.38808 20.815795 L 255.38808 21.473025 L 255.489794 22.192849 L 255.454586 23.601199 L 255.525003 24.289725 L 255.423289 25.592449 L 255.525003 26.280975 L 255.525003 26.934293 L 255.834058 27.689325 L 256.487376 28.068797 L 257.653176 27.99838 L 259.374493 28.100094 L 260.098228 27.99838 L 260.884557 28.068797 L 261.573084 27.724534 L 261.882138 27.036008 L 261.784336 26.347481 L 261.882138 17.93259 L 261.749127 17.208855 L 262.093391 16.798086 L 262.539368 16.8998 L 267.456856 21.70775 L 268.000636 22.161552 L 271.333731 25.490735 L 271.78362 26.04625 L 272.331312 26.488316 L 272.742081 27.000799 Z M 288.100919 28.276138 L 289.102412 28.377852 L 290.197795 28.342643 L 293.566099 27.689325 L 295.350009 26.723041 L 296.449304 25.968009 L 297.415588 24.868714 L 298.104115 23.769418 L 298.381873 23.151309 L 298.581389 22.470607 L 298.683103 21.848585 L 298.718312 19.7165 L 298.616598 19.027974 L 298.448378 18.374656 L 297.759852 17.107141 L 296.938314 16.043054 L 296.351502 15.554044 L 294.528471 14.732506 L 291.711771 14.04398 L 288.237842 13.601914 L 286.794283 13.081607 L 286.2818 12.811674 L 285.726284 12.26007 L 285.694988 11.325082 L 285.79279 10.437039 L 286.172262 9.959765 L 286.759074 9.505963 L 287.236348 9.306447 L 287.85837 9.1617 L 290.05696 9.095195 L 290.811992 9.372953 L 291.332299 9.783721 L 292.466803 10.984731 L 293.53089 11.325082 L 295.795986 11.403324 L 296.418007 11.325082 L 297.071325 11.403324 L 297.724643 10.984731 L 298.03761 10.335325 L 297.759852 8.99348 L 297.208248 7.75335 L 296.762271 7.205659 L 296.418007 6.654055 L 295.97203 6.141572 L 293.773439 4.631508 L 291.876079 3.97819 L 291.156256 3.841267 L 290.542059 3.766938 L 289.787026 3.598718 L 287.85837 3.633927 L 285.147296 4.177706 L 284.529187 4.420255 L 283.973671 4.764519 L 283.429892 4.975771 L 282.741365 5.38654 L 282.260179 5.832517 L 281.64207 6.243286 L 281.262598 6.830099 L 280.808796 7.272164 L 280.574071 7.894185 L 280.229808 8.441877 L 279.752533 10.437039 L 279.787742 12.737344 L 280.022467 13.699716 L 280.476269 14.900726 L 281.329103 16.043054 L 282.295387 16.931097 L 283.496397 17.654832 L 285.448526 18.30815 L 286.692569 18.585908 L 289.513181 18.785424 L 290.13129 18.894963 L 290.811992 18.930171 L 292.056035 19.442654 L 292.533309 19.853423 L 292.709353 20.74929 L 292.4981 21.641245 L 291.95432 22.126343 L 291.398805 22.427574 L 290.13129 22.81487 L 289.168917 22.846167 L 288.136127 22.771837 L 287.345887 22.572321 L 286.82558 22.32586 L 286.215295 21.9503 L 285.694988 21.473025 L 285.182505 20.784499 L 284.493978 20.506741 L 281.876795 20.440235 L 281.196092 20.506741 L 280.507565 20.471532 L 279.819039 20.784499 L 279.57649 21.504322 L 279.642995 22.259354 L 279.787742 22.881375 L 280.331522 24.258429 L 281.196092 25.322515 L 282.185849 26.312272 L 282.772662 26.691744 L 285.24901 27.834072 L 286.004042 27.931875 L 286.65736 28.1666 Z M 288.100919 28.276138 " stroke="#ffffff" stroke-width="6.8748" stroke-opacity="1" stroke-miterlimit="4"/><g fill="#000000" fill-opacity="1"><g transform="translate(38.21769, 212.44693)"><g><path d="M 11.9375 0.28125 L 13.65625 0.40625 L 16.0625 0.234375 L 18.078125 -0.171875 L 18.703125 -0.515625 L 19.421875 -0.75 L 20 -1.03125 L 21.6875 -2.234375 L 22.640625 -3.1875 L 23.4375 -4.21875 L 24.15625 -5.453125 L 25.046875 -8.0625 L 24.84375 -8.6875 L 24.15625 -9.125 L 22.234375 -8.984375 L 21.546875 -9.09375 L 20.859375 -9.0625 L 20.171875 -9.09375 L 19.390625 -8.6875 L 18.84375 -8.125 L 18.5 -7.484375 L 17.703125 -6.59375 L 17.15625 -6.109375 L 16.640625 -5.90625 L 15.4375 -5.25 L 13.625 -5.140625 L 12.625 -5.25 L 11.390625 -5.703125 L 10.1875 -6.3125 L 9.203125 -7.203125 L 8.4375 -8.40625 L 8.203125 -9.09375 L 7.953125 -9.578125 L 7.78125 -10.1875 L 7.6875 -10.953125 L 7.6875 -13.03125 L 7.921875 -14.40625 L 8.4375 -15.640625 L 8.78125 -16.296875 L 9.609375 -17.265625 L 10.4375 -17.90625 L 11.359375 -18.421875 L 13.65625 -18.734375 L 15.125 -18.671875 L 16.203125 -18.359375 L 16.8125 -18.109375 L 17.296875 -17.734375 L 18.28125 -16.75 L 18.671875 -16.234375 L 19.3125 -15.578125 L 20.109375 -15.203125 L 20.71875 -15.265625 L 21.4375 -15.234375 L 22.125 -15.265625 L 23.09375 -15.171875 L 24.125 -15.265625 L 24.703125 -15.546875 L 24.9375 -16.234375 L 24.734375 -16.984375 L 24.5 -17.609375 L 24.296875 -18.328125 L 23.921875 -18.875 L 23.609375 -19.421875 L 23.125 -20 L 22.75 -20.65625 L 21.78125 -21.65625 L 19.453125 -23.125 L 16.15625 -24.21875 L 15.515625 -24.265625 L 14.828125 -24.359375 L 12.703125 -24.390625 L 9.375 -23.75 L 6.828125 -22.546875 L 5.828125 -21.78125 L 4.359375 -20.453125 L 3.4375 -19.28125 L 2.78125 -18.28125 L 1.921875 -16.359375 L 1.578125 -14.953125 L 1.234375 -12.015625 L 1.4375 -9.5 L 1.921875 -7.546875 L 3.390625 -4.5625 L 4.796875 -3.046875 L 6.34375 -1.71875 L 7.828125 -0.921875 L 9.375 -0.28125 L 9.984375 -0.140625 L 10.671875 0.109375 L 11.28125 0.234375 Z M 11.9375 0.28125 "/></g></g></g><g fill="#000000" fill-opacity="1"><g transform="translate(63.708408, 212.44693)"><g><path d="M 2.609375 -0.953125 L 2.875 -0.234375 L 3.671875 0.0625 L 4.328125 0.0625 L 5.390625 -0.03125 L 6.375 0 L 7.109375 0.109375 L 7.828125 0.03125 L 8.578125 -0.28125 L 8.859375 -0.953125 L 8.890625 -1.640625 L 8.78125 -2.40625 L 8.859375 -3.015625 L 8.78125 -3.703125 L 8.859375 -4.359375 L 8.8125 -5.109375 L 8.890625 -5.828125 L 8.78125 -8.546875 L 9.125 -9.265625 L 9.8125 -9.671875 L 10.53125 -9.671875 L 11.15625 -9.609375 L 13.171875 -9.609375 L 13.859375 -9.671875 L 14.546875 -9.609375 L 15.203125 -9.609375 L 15.8125 -9.265625 L 16.15625 -8.578125 L 16.265625 -6.484375 L 16.15625 -5.828125 L 16.296875 -3.390625 L 16.15625 -2.375 L 16.265625 -1.03125 L 16.609375 -0.3125 L 17.296875 0.03125 L 17.984375 -0.03125 L 19.015625 0.0625 L 21.375 0.0625 L 22.0625 -0.3125 L 22.4375 -0.953125 L 22.578125 -2.375 L 22.578125 -7.890625 L 22.4375 -9.203125 L 22.46875 -9.875 L 22.40625 -10.609375 L 22.40625 -11.28125 L 22.515625 -12.015625 L 22.46875 -13.3125 L 22.546875 -14.0625 L 22.4375 -17.4375 L 22.609375 -20.28125 L 22.46875 -20.9375 L 22.40625 -21.578125 L 22.546875 -22.265625 L 22.46875 -22.953125 L 22.125 -23.640625 L 21.0625 -23.984375 L 19.3125 -24.015625 L 18.21875 -23.921875 L 17.53125 -23.921875 L 16.5 -23.609375 L 16.234375 -22.609375 L 16.296875 -18.875 L 16.15625 -18.28125 L 16.15625 -16.296875 L 15.78125 -15.609375 L 15.203125 -15.265625 L 13.828125 -15.265625 L 13.203125 -15.34375 L 9.875 -15.296875 L 9.15625 -15.609375 L 8.890625 -16.265625 L 8.890625 -18.328125 L 8.953125 -18.9375 L 8.859375 -22.34375 L 8.890625 -22.921875 L 8.46875 -23.640625 L 7.40625 -23.984375 L 5.390625 -23.921875 L 4.703125 -23.984375 L 4.046875 -23.921875 L 2.984375 -23.609375 L 2.609375 -23.03125 L 2.5 -22.265625 L 2.5 -21.609375 L 2.578125 -20.859375 L 2.46875 -20.203125 L 2.640625 -18.15625 L 2.546875 -17.390625 L 2.609375 -16.8125 L 2.46875 -16.125 L 2.609375 -14.03125 L 2.546875 -13.3125 L 2.546875 -11.328125 L 2.640625 -10.671875 L 2.578125 -9.609375 L 2.640625 -8.8125 L 2.546875 -7.203125 L 2.609375 -6.453125 L 2.5 -5.765625 L 2.609375 -5.140625 L 2.546875 -4.453125 Z M 2.609375 -0.953125 "/></g></g></g><g fill="#000000" fill-opacity="1"><g transform="translate(88.135574, 212.44693)"><g><path d="M 10.125 0.28125 L 11.765625 0.40625 L 13.484375 0.34375 L 14.859375 0.03125 L 15.578125 -0.234375 L 16.265625 -0.40625 L 16.8125 -0.75 L 17.4375 -1.03125 L 17.984375 -1.40625 L 19.53125 -2.78125 L 19.90625 -3.390625 L 20.34375 -3.90625 L 20.546875 -4.59375 L 20.890625 -5.1875 L 21.140625 -5.828125 L 21.375 -9.296875 L 21.28125 -12.078125 L 21.40625 -12.796875 L 21.40625 -13.421875 L 21.28125 -14.109375 L 21.234375 -14.75 L 21.3125 -15.46875 L 21.28125 -16.4375 L 21.34375 -17.5 L 21.3125 -18.25 L 21.40625 -18.90625 L 21.3125 -19.59375 L 21.34375 -22.375 L 21.234375 -22.953125 L 20.96875 -23.703125 L 19.859375 -24.015625 L 16.640625 -24.046875 L 15.890625 -23.75 L 15.546875 -22.984375 L 15.578125 -19.625 L 15.515625 -18.9375 L 15.546875 -17.609375 L 15.46875 -16.875 L 15.578125 -16.15625 L 15.46875 -13.453125 L 15.609375 -12.828125 L 15.546875 -12.078125 L 15.578125 -10.84375 L 15.515625 -10.15625 L 15.546875 -8.40625 L 15.40625 -7.3125 L 15.09375 -6.65625 L 14.78125 -6.171875 L 14.234375 -5.65625 L 12.859375 -5.21875 L 11.9375 -5.140625 L 10.8125 -5.21875 L 10.1875 -5.390625 L 9.4375 -5.765625 L 8.921875 -6.203125 L 8.515625 -6.6875 L 8.296875 -7.40625 L 8.234375 -13.453125 L 8.125 -14.140625 L 8.09375 -16.265625 L 8.171875 -16.875 L 8.171875 -19.625 L 8.0625 -20.625 L 8.0625 -21.28125 L 8.234375 -22.296875 L 8.234375 -23.03125 L 7.859375 -23.671875 L 7.03125 -23.984375 L 3.4375 -24.015625 L 2.75 -23.640625 L 2.4375 -22.953125 L 2.4375 -20.890625 L 2.265625 -20.3125 L 2.40625 -18.875 L 2.296875 -17.5625 L 2.46875 -15.515625 L 2.328125 -14.859375 L 2.4375 -14.109375 L 2.375 -13.453125 L 2.40625 -12.765625 L 2.328125 -12.109375 L 2.4375 -10.734375 L 2.40625 -8.265625 L 2.5 -7.28125 L 2.5 -6.546875 L 2.703125 -5.875 L 2.8125 -5.21875 L 3.015625 -4.5625 L 3.703125 -3.390625 L 4.625 -2.265625 L 5.078125 -1.8125 L 6.25 -1.125 L 6.765625 -0.71875 L 7.40625 -0.453125 L 8.203125 -0.203125 L 8.71875 0.0625 L 9.46875 0.109375 Z M 10.125 0.28125 "/></g></g></g><g fill="#000000" fill-opacity="1"><g transform="translate(111.121795, 212.44693)"><g><path d="M 2.5 -1.03125 L 2.875 -0.234375 L 3.53125 0.0625 L 14.890625 -0.0625 L 16.203125 -0.234375 L 17.328125 -0.6875 L 18.625 -1.4375 L 19.078125 -1.78125 L 19.625 -2.296875 L 20.421875 -3.4375 L 20.71875 -4.078125 L 20.859375 -4.671875 L 21.140625 -5.359375 L 21.171875 -8.09375 L 21.03125 -8.75 L 20.796875 -9.46875 L 20.171875 -10.671875 L 19.703125 -11.25 L 19.1875 -11.765625 L 18.875 -12.53125 L 19.015625 -13.203125 L 19.390625 -13.890625 L 19.796875 -14.484375 L 20.28125 -16.953125 L 20.25 -17.953125 L 19.859375 -19.21875 L 19.53125 -19.859375 L 19.3125 -20.515625 L 18.5 -21.609375 L 18.015625 -22.09375 L 16.984375 -22.8125 L 15.71875 -23.5 L 13.796875 -23.953125 L 3.46875 -24.015625 L 2.78125 -23.703125 L 2.46875 -22.984375 L 2.546875 -21.515625 L 2.46875 -20.515625 L 2.609375 -18.21875 L 2.5 -17.5 L 2.578125 -16.78125 L 2.5 -16.125 L 2.546875 -15.40625 L 2.46875 -14.75 L 2.46875 -12.015625 L 2.578125 -11.28125 L 2.5 -10.640625 L 2.5 -9.265625 L 2.578125 -8.609375 L 2.5 -5.796875 L 2.609375 -4.390625 L 2.46875 -2.328125 Z M 9.53125 -14.71875 L 8.71875 -15 L 8.375 -15.6875 L 8.515625 -16.265625 L 8.515625 -16.921875 L 8.4375 -17.5625 L 8.8125 -18.15625 L 9.53125 -18.53125 L 12.015625 -18.421875 L 13.078125 -18.21875 L 13.484375 -17.953125 L 13.9375 -17.46875 L 14.03125 -16.53125 L 13.859375 -15.515625 L 13.28125 -14.953125 L 12.109375 -14.71875 Z M 9.4375 -5.453125 L 8.859375 -5.734375 L 8.46875 -6.453125 L 8.515625 -7.03125 L 8.4375 -7.6875 L 8.46875 -8.375 L 8.71875 -8.984375 L 9.40625 -9.328125 L 13.03125 -9.328125 L 14 -9.15625 L 14.515625 -8.78125 L 15.03125 -8.296875 L 15.09375 -7.34375 L 15.03125 -6.453125 L 14.578125 -5.96875 L 13.96875 -5.59375 L 12.109375 -5.421875 Z M 9.4375 -5.453125 "/></g></g></g><g fill="#000000" fill-opacity="1"><g transform="translate(133.078769, 212.44693)"><g><path d="M 2.5 -1.03125 L 2.875 -0.234375 L 3.53125 0.0625 L 14.890625 -0.0625 L 16.203125 -0.234375 L 17.328125 -0.6875 L 18.625 -1.4375 L 19.078125 -1.78125 L 19.625 -2.296875 L 20.421875 -3.4375 L 20.71875 -4.078125 L 20.859375 -4.671875 L 21.140625 -5.359375 L 21.171875 -8.09375 L 21.03125 -8.75 L 20.796875 -9.46875 L 20.171875 -10.671875 L 19.703125 -11.25 L 19.1875 -11.765625 L 18.875 -12.53125 L 19.015625 -13.203125 L 19.390625 -13.890625 L 19.796875 -14.484375 L 20.28125 -16.953125 L 20.25 -17.953125 L 19.859375 -19.21875 L 19.53125 -19.859375 L 19.3125 -20.515625 L 18.5 -21.609375 L 18.015625 -22.09375 L 16.984375 -22.8125 L 15.71875 -23.5 L 13.796875 -23.953125 L 3.46875 -24.015625 L 2.78125 -23.703125 L 2.46875 -22.984375 L 2.546875 -21.515625 L 2.46875 -20.515625 L 2.609375 -18.21875 L 2.5 -17.5 L 2.578125 -16.78125 L 2.5 -16.125 L 2.546875 -15.40625 L 2.46875 -14.75 L 2.46875 -12.015625 L 2.578125 -11.28125 L 2.5 -10.640625 L 2.5 -9.265625 L 2.578125 -8.609375 L 2.5 -5.796875 L 2.609375 -4.390625 L 2.46875 -2.328125 Z M 9.53125 -14.71875 L 8.71875 -15 L 8.375 -15.6875 L 8.515625 -16.265625 L 8.515625 -16.921875 L 8.4375 -17.5625 L 8.8125 -18.15625 L 9.53125 -18.53125 L 12.015625 -18.421875 L 13.078125 -18.21875 L 13.484375 -17.953125 L 13.9375 -17.46875 L 14.03125 -16.53125 L 13.859375 -15.515625 L 13.28125 -14.953125 L 12.109375 -14.71875 Z M 9.4375 -5.453125 L 8.859375 -5.734375 L 8.46875 -6.453125 L 8.515625 -7.03125 L 8.4375 -7.6875 L 8.46875 -8.375 L 8.71875 -8.984375 L 9.40625 -9.328125 L 13.03125 -9.328125 L 14 -9.15625 L 14.515625 -8.78125 L 15.03125 -8.296875 L 15.09375 -7.34375 L 15.03125 -6.453125 L 14.578125 -5.96875 L 13.96875 -5.59375 L 12.109375 -5.421875 Z M 9.4375 -5.453125 "/></g></g></g><g fill="#000000" fill-opacity="1"><g transform="translate(155.035743, 212.44693)"><g><path d="M 7.890625 -0.953125 L 8.265625 -0.375 L 8.921875 -0.03125 L 10.15625 0.03125 L 10.84375 -0.03125 L 11.5625 0 L 12.53125 -0.03125 L 13.546875 -0.375 L 13.890625 -1.0625 L 13.890625 -1.640625 L 13.828125 -2.375 L 13.859375 -3.015625 L 13.828125 -3.640625 L 14 -5.734375 L 13.890625 -6.453125 L 14 -8.4375 L 13.859375 -9.0625 L 14.03125 -10.046875 L 15.234375 -12.140625 L 15.515625 -12.796875 L 15.890625 -13.375 L 16.75 -14.515625 L 20.6875 -21.03125 L 21.109375 -21.546875 L 21.34375 -22.171875 L 21.828125 -22.984375 L 21.71875 -23.8125 L 21.0625 -24.09375 L 20.375 -23.984375 L 19.046875 -24.09375 L 18.328125 -23.984375 L 17.015625 -23.984375 L 16.359375 -24.046875 L 15.515625 -23.703125 L 14.78125 -23.0625 L 14.203125 -21.890625 L 13.765625 -21.234375 L 13.546875 -20.59375 L 12.765625 -19.453125 L 12.25 -18.21875 L 11.125 -16.359375 L 10.640625 -16.296875 L 9.84375 -17.53125 L 9.53125 -18.15625 L 9.328125 -18.84375 L 7.625 -21.859375 L 7.234375 -22.4375 L 6.96875 -23.125 L 6.203125 -23.671875 L 5.359375 -24.046875 L 0.828125 -23.984375 L 0.0625 -23.78125 L 0 -23.03125 L 0.34375 -22.203125 L 4.046875 -16.328125 L 4.328125 -15.75 L 7.375 -10.953125 L 7.65625 -10.046875 L 7.828125 -9.0625 L 7.78125 -6.34375 L 7.859375 -5.65625 L 7.890625 -5.015625 L 7.828125 -4.390625 L 7.78125 -3.09375 L 7.953125 -1.6875 Z M 7.890625 -0.953125 "/></g></g></g><g fill="#000000" fill-opacity="1"><g transform="translate(176.169316, 212.44693)"><g/></g></g><g fill="#000000" fill-opacity="1"><g transform="translate(184.780389, 212.44693)"><g><path d="M 10.5625 0.109375 L 11.59375 0.109375 L 12.65625 -0.03125 L 13.34375 -0.03125 L 14.34375 -0.34375 L 15.75 -0.578125 L 17.359375 -1.265625 L 19.65625 -2.8125 L 21.34375 -4.96875 L 21.6875 -5.65625 L 22.09375 -6.203125 L 22.640625 -7.546875 L 22.8125 -8.203125 L 22.953125 -8.921875 L 23.15625 -9.5 L 23.265625 -10.1875 L 23.265625 -10.90625 L 23.359375 -12.015625 L 23.328125 -13 L 22.859375 -15.71875 L 22.40625 -17.015625 L 22.125 -17.671875 L 20.96875 -19.484375 L 19.140625 -21.515625 L 17.390625 -22.6875 L 16.75 -23.0625 L 16.0625 -23.1875 L 15.46875 -23.46875 L 14.75 -23.640625 L 12.734375 -23.953125 L 4.90625 -24.015625 L 4.28125 -23.921875 L 3.609375 -23.953125 L 2.84375 -23.640625 L 2.546875 -22.921875 L 2.5 -3.734375 L 2.578125 -3.09375 L 2.578125 -1.34375 L 2.921875 -0.28125 L 3.609375 0.0625 L 4.28125 0 L 8.46875 0.0625 L 9.15625 -0.03125 Z M 10.46875 -5.53125 L 9.8125 -5.59375 L 9.03125 -5.96875 L 8.75 -6.625 L 8.71875 -7.203125 L 8.75 -8.609375 L 8.609375 -10.296875 L 8.75 -12.015625 L 8.6875 -16.75 L 8.75 -17.328125 L 9.09375 -18.109375 L 10.1875 -18.359375 L 11.625 -18.390625 L 12.625 -18.28125 L 13.96875 -17.90625 L 14.578125 -17.609375 L 15.09375 -17.21875 L 15.609375 -16.75 L 16.125 -16.125 L 16.46875 -15.546875 L 16.78125 -14.921875 L 17.328125 -11.90625 L 16.984375 -9.5 L 16.40625 -8.234375 L 15.125 -6.796875 L 13.96875 -6.03125 L 12.96875 -5.734375 L 11.5 -5.5625 Z M 10.46875 -5.53125 "/></g></g></g><g fill="#000000" fill-opacity="1"><g transform="translate(209.036009, 212.44693)"><g><path d="M 2.46875 -1 L 2.921875 -0.34375 L 3.5625 0.03125 L 11.328125 -0.03125 L 11.9375 0.0625 L 14.03125 -0.03125 L 16.125 0.109375 L 16.78125 0.03125 L 17.5 -0.3125 L 17.8125 -0.953125 L 17.875 -1.609375 L 17.84375 -3.734375 L 17.90625 -4.390625 L 17.46875 -5.078125 L 16.4375 -5.421875 L 11.90625 -5.484375 L 11.25 -5.390625 L 10.5 -5.453125 L 9.75 -5.390625 L 9.03125 -5.796875 L 8.71875 -6.859375 L 8.75 -8.546875 L 9.0625 -9.265625 L 9.671875 -9.640625 L 11.015625 -9.640625 L 11.703125 -9.703125 L 13.515625 -9.609375 L 14.453125 -9.671875 L 15.171875 -9.609375 L 15.78125 -9.640625 L 16.46875 -10.015625 L 16.8125 -10.671875 L 16.875 -13.375 L 16.8125 -14.0625 L 16.5 -14.71875 L 15.921875 -15.09375 L 14.546875 -15.125 L 13.859375 -15.0625 L 13.140625 -15.0625 L 12.359375 -15.125 L 9.640625 -15.09375 L 9.0625 -15.46875 L 8.640625 -16.09375 L 8.578125 -17.15625 L 8.921875 -18.15625 L 9.984375 -18.453125 L 16.578125 -18.5 L 17.296875 -18.875 L 17.671875 -19.484375 L 17.609375 -20.890625 L 17.5 -21.546875 L 17.53125 -22.296875 L 17.640625 -22.953125 L 17.296875 -23.640625 L 16.578125 -23.953125 L 13.828125 -23.984375 L 13.203125 -23.921875 L 12.53125 -24.015625 L 11.015625 -23.953125 L 10.328125 -24.015625 L 8.984375 -23.984375 L 8.375 -24.046875 L 3.875 -23.953125 L 2.875 -23.703125 L 2.546875 -22.953125 L 2.609375 -21.578125 L 2.46875 -20.59375 L 2.609375 -18.84375 L 2.546875 -18.109375 L 2.609375 -17.5 L 2.609375 -11.359375 L 2.5 -10.640625 L 2.609375 -9.296875 L 2.546875 -7.921875 L 2.640625 -7.203125 L 2.578125 -6.453125 L 2.609375 -5.796875 L 2.5 -5.1875 L 2.578125 -4.390625 L 2.578125 -3.703125 L 2.640625 -2.375 L 2.609375 -1.6875 Z M 2.46875 -1 "/></g></g></g><g fill="#000000" fill-opacity="1"><g transform="translate(228.008167, 212.44693)"><g><path d="M 9.953125 0.28125 L 10.953125 0.375 L 12.046875 0.34375 L 15.40625 -0.3125 L 17.1875 -1.265625 L 18.28125 -2.03125 L 19.25 -3.125 L 19.9375 -4.21875 L 20.203125 -4.84375 L 20.421875 -5.53125 L 20.515625 -6.140625 L 20.546875 -8.265625 L 20.453125 -8.953125 L 20.28125 -9.609375 L 19.59375 -10.875 L 18.765625 -11.9375 L 18.1875 -12.421875 L 16.359375 -13.25 L 13.546875 -13.9375 L 10.09375 -14.375 L 8.640625 -14.890625 L 8.125 -15.171875 L 7.578125 -15.71875 L 7.546875 -16.640625 L 7.65625 -17.53125 L 8.03125 -18.015625 L 8.609375 -18.453125 L 9.09375 -18.671875 L 9.703125 -18.796875 L 11.90625 -18.875 L 12.65625 -18.59375 L 13.171875 -18.1875 L 14.3125 -16.984375 L 15.375 -16.640625 L 17.640625 -16.578125 L 18.25 -16.640625 L 18.90625 -16.578125 L 19.5625 -16.984375 L 19.859375 -17.640625 L 19.59375 -18.96875 L 19.046875 -20.203125 L 18.59375 -20.765625 L 18.25 -21.3125 L 17.8125 -21.828125 L 15.609375 -23.328125 L 13.71875 -23.984375 L 13 -24.125 L 12.390625 -24.1875 L 11.625 -24.359375 L 9.703125 -24.328125 L 7 -23.78125 L 6.375 -23.53125 L 5.828125 -23.1875 L 5.28125 -22.984375 L 4.59375 -22.578125 L 4.125 -22.125 L 3.5 -21.71875 L 3.125 -21.140625 L 2.671875 -20.6875 L 2.4375 -20.078125 L 2.09375 -19.53125 L 1.609375 -17.53125 L 1.640625 -15.234375 L 1.890625 -14.28125 L 2.328125 -13.078125 L 3.1875 -11.9375 L 4.15625 -11.046875 L 5.359375 -10.328125 L 7.3125 -9.671875 L 8.546875 -9.40625 L 11.359375 -9.203125 L 11.96875 -9.09375 L 12.65625 -9.0625 L 13.890625 -8.546875 L 14.375 -8.125 L 14.546875 -7.234375 L 14.34375 -6.34375 L 13.796875 -5.875 L 13.25 -5.5625 L 11.96875 -5.1875 L 11.015625 -5.140625 L 9.984375 -5.21875 L 9.203125 -5.421875 L 8.6875 -5.65625 L 8.0625 -6.03125 L 7.546875 -6.515625 L 7.03125 -7.203125 L 6.34375 -7.484375 L 3.734375 -7.546875 L 3.046875 -7.484375 L 2.375 -7.515625 L 1.6875 -7.203125 L 1.4375 -6.484375 L 1.515625 -5.734375 L 1.640625 -5.109375 L 2.203125 -3.734375 L 3.046875 -2.671875 L 4.046875 -1.6875 L 4.625 -1.296875 L 7.109375 -0.171875 L 7.859375 -0.0625 L 8.515625 0.171875 Z M 9.953125 0.28125 "/></g></g></g><g fill="#000000" fill-opacity="1"><g transform="translate(249.210347, 212.44693)"><g><path d="M 1.640625 -1 L 1.984375 -0.28125 L 2.671875 -0.03125 L 12.859375 0.03125 L 13.515625 -0.3125 L 13.890625 -0.921875 L 13.890625 -1.6875 L 13.828125 -2.296875 L 13.9375 -4.390625 L 13.453125 -4.96875 L 11.15625 -5.703125 L 10.78125 -6.375 L 10.84375 -9.203125 L 10.703125 -10.5625 L 10.84375 -12.015625 L 10.78125 -13.03125 L 10.84375 -14.109375 L 10.78125 -14.75 L 10.84375 -15.4375 L 10.78125 -16.15625 L 10.78125 -17.609375 L 11.15625 -18.21875 L 11.796875 -18.59375 L 12.5625 -18.625 L 13.203125 -19.015625 L 13.59375 -19.65625 L 13.59375 -21.6875 L 13.65625 -22.296875 L 13.59375 -22.984375 L 13.3125 -23.671875 L 12.21875 -23.984375 L 7.859375 -24.015625 L 7.109375 -23.953125 L 5.015625 -23.984375 L 4.359375 -23.953125 L 3.015625 -24.015625 L 2.265625 -23.671875 L 1.890625 -22.953125 L 1.890625 -22.296875 L 1.8125 -21.71875 L 1.8125 -20.96875 L 1.890625 -20.28125 L 1.890625 -19.625 L 2.234375 -18.96875 L 4.328125 -18.25 L 4.765625 -17.640625 L 4.671875 -14.71875 L 4.703125 -14.140625 L 4.796875 -13.34375 L 4.765625 -11.9375 L 4.703125 -11.25 L 4.84375 -9.921875 L 4.671875 -9.234375 L 4.796875 -7.75 L 4.734375 -6.421875 L 4.390625 -5.65625 L 2.125 -4.9375 L 1.71875 -4.28125 L 1.640625 -3.640625 Z M 1.640625 -1 "/></g></g></g><g fill="#000000" fill-opacity="1"><g transform="translate(264.099826, 212.44693)"><g><path d="M 12.5625 0.40625 L 13.453125 0.453125 L 15.296875 0.28125 L 15.984375 0.140625 L 16.640625 0.109375 L 17.21875 -0.0625 L 19.765625 -1.171875 L 20.25 -1.578125 L 21.375 -2.296875 L 22.375 -3.359375 L 23.46875 -4.96875 L 24.265625 -6.546875 L 24.703125 -8.03125 L 24.734375 -8.6875 L 24.9375 -9.375 L 25.078125 -11.96875 L 24.984375 -12.65625 L 24.5625 -13.34375 L 23.578125 -13.65625 L 14.953125 -13.65625 L 13.890625 -13.28125 L 13.59375 -12.625 L 13.515625 -10.046875 L 13.65625 -9.40625 L 13.859375 -8.8125 L 14.515625 -8.515625 L 15.171875 -8.515625 L 15.78125 -8.4375 L 17.84375 -8.546875 L 18.328125 -8.171875 L 18.453125 -7.578125 L 18.1875 -7.03125 L 17.1875 -6.078125 L 16.640625 -5.796875 L 15.34375 -5.390625 L 14.65625 -5.28125 L 13.65625 -5.25 L 12.59375 -5.3125 L 11.96875 -5.453125 L 11.359375 -5.703125 L 10.125 -6.34375 L 9.09375 -7.171875 L 8.71875 -7.75 L 8.4375 -8.34375 L 8.0625 -8.953125 L 7.828125 -9.609375 L 7.625 -13.03125 L 8 -14.28125 L 8.125 -14.953125 L 8.640625 -16.234375 L 9.53125 -17.1875 L 10.671875 -17.984375 L 11.25 -18.25 L 12.59375 -18.703125 L 13.546875 -18.734375 L 15.34375 -18.53125 L 15.984375 -18.359375 L 17.703125 -17.296875 L 18.046875 -16.75 L 18.796875 -16.203125 L 19.5625 -15.859375 L 22.921875 -15.859375 L 23.578125 -15.921875 L 24.15625 -16.125 L 24.390625 -16.875 L 23.296875 -19.421875 L 22.8125 -19.90625 L 21.953125 -21 L 20.96875 -22 L 18.625 -23.4375 L 17.875 -23.640625 L 17.328125 -23.875 L 16.640625 -23.984375 L 15.890625 -24.1875 L 12.484375 -24.359375 L 10.390625 -24.015625 L 7.78125 -23.09375 L 7.171875 -22.78125 L 5.453125 -21.609375 L 4.421875 -20.65625 L 3.984375 -20.078125 L 3.640625 -19.53125 L 3.125 -19.046875 L 2.75 -18.390625 L 1.6875 -15.78125 L 1.640625 -15.171875 L 1.265625 -13.65625 L 1.34375 -11.9375 L 1.265625 -10.984375 L 1.296875 -10.265625 L 1.890625 -7.625 L 2.609375 -5.734375 L 2.984375 -5.078125 L 4.21875 -3.53125 L 5.1875 -2.546875 L 7.375 -1.0625 L 8 -0.75 L 9.921875 -0.0625 L 11.84375 0.34375 Z M 12.5625 0.40625 "/></g></g></g><g fill="#000000" fill-opacity="1"><g transform="translate(289.693459, 212.44693)"><g><path d="M 20.25 -0.546875 L 21.234375 -0.109375 L 22.125 0.171875 L 22.921875 -0.203125 L 23.234375 -0.921875 L 23.40625 -10.265625 L 23.265625 -11.21875 L 23.328125 -11.96875 L 23.1875 -16.09375 L 23.296875 -17.46875 L 23.234375 -18.109375 L 23.234375 -19.484375 L 23.359375 -20.171875 L 23.296875 -21.203125 L 23.359375 -22.984375 L 22.953125 -23.609375 L 22.203125 -23.953125 L 21.515625 -24.015625 L 20.859375 -24.015625 L 20.109375 -23.953125 L 19.390625 -24.046875 L 18.765625 -23.984375 L 18.078125 -24.015625 L 17.265625 -23.671875 L 16.921875 -22.953125 L 16.875 -16.703125 L 17.015625 -15.984375 L 17.015625 -15.34375 L 16.875 -14.609375 L 16.921875 -13.25 L 16.75 -12.703125 L 16.265625 -12.828125 L 14.75 -14.375 L 14.234375 -14.78125 L 13.03125 -16.03125 L 12.484375 -16.4375 L 12.109375 -16.921875 L 11.390625 -17.671875 L 10.328125 -18.5625 L 9.953125 -19.078125 L 9.296875 -19.53125 L 8.953125 -20.03125 L 8.375 -20.453125 L 7.921875 -21.03125 L 6.078125 -22.921875 L 4.703125 -23.84375 L 3.78125 -24.125 L 2.953125 -23.703125 L 2.5 -23.0625 L 2.578125 -18.25 L 2.5 -17.5625 L 2.609375 -16.15625 L 2.546875 -15.546875 L 2.578125 -14.828125 L 2.46875 -14.109375 L 2.609375 -9.203125 L 2.546875 -8.578125 L 2.546875 -7.921875 L 2.46875 -7.171875 L 2.46875 -6.515625 L 2.578125 -5.796875 L 2.546875 -4.390625 L 2.609375 -3.703125 L 2.5 -2.40625 L 2.609375 -1.71875 L 2.609375 -1.0625 L 2.921875 -0.3125 L 3.5625 0.0625 L 4.734375 0 L 6.453125 0.109375 L 7.171875 0 L 7.953125 0.0625 L 8.640625 -0.28125 L 8.953125 -0.953125 L 8.859375 -1.640625 L 8.953125 -10.046875 L 8.8125 -10.78125 L 9.15625 -11.1875 L 9.609375 -11.078125 L 14.515625 -6.28125 L 15.0625 -5.828125 L 18.390625 -2.5 L 18.84375 -1.953125 L 19.390625 -1.515625 L 19.796875 -1 Z M 20.25 -0.546875 "/></g></g></g><g fill="#000000" fill-opacity="1"><g transform="translate(314.875399, 212.44693)"><g><path d="M 9.953125 0.28125 L 10.953125 0.375 L 12.046875 0.34375 L 15.40625 -0.3125 L 17.1875 -1.265625 L 18.28125 -2.03125 L 19.25 -3.125 L 19.9375 -4.21875 L 20.203125 -4.84375 L 20.421875 -5.53125 L 20.515625 -6.140625 L 20.546875 -8.265625 L 20.453125 -8.953125 L 20.28125 -9.609375 L 19.59375 -10.875 L 18.765625 -11.9375 L 18.1875 -12.421875 L 16.359375 -13.25 L 13.546875 -13.9375 L 10.09375 -14.375 L 8.640625 -14.890625 L 8.125 -15.171875 L 7.578125 -15.71875 L 7.546875 -16.640625 L 7.65625 -17.53125 L 8.03125 -18.015625 L 8.609375 -18.453125 L 9.09375 -18.671875 L 9.703125 -18.796875 L 11.90625 -18.875 L 12.65625 -18.59375 L 13.171875 -18.1875 L 14.3125 -16.984375 L 15.375 -16.640625 L 17.640625 -16.578125 L 18.25 -16.640625 L 18.90625 -16.578125 L 19.5625 -16.984375 L 19.859375 -17.640625 L 19.59375 -18.96875 L 19.046875 -20.203125 L 18.59375 -20.765625 L 18.25 -21.3125 L 17.8125 -21.828125 L 15.609375 -23.328125 L 13.71875 -23.984375 L 13 -24.125 L 12.390625 -24.1875 L 11.625 -24.359375 L 9.703125 -24.328125 L 7 -23.78125 L 6.375 -23.53125 L 5.828125 -23.1875 L 5.28125 -22.984375 L 4.59375 -22.578125 L 4.125 -22.125 L 3.5 -21.71875 L 3.125 -21.140625 L 2.671875 -20.6875 L 2.4375 -20.078125 L 2.09375 -19.53125 L 1.609375 -17.53125 L 1.640625 -15.234375 L 1.890625 -14.28125 L 2.328125 -13.078125 L 3.1875 -11.9375 L 4.15625 -11.046875 L 5.359375 -10.328125 L 7.3125 -9.671875 L 8.546875 -9.40625 L 11.359375 -9.203125 L 11.96875 -9.09375 L 12.65625 -9.0625 L 13.890625 -8.546875 L 14.375 -8.125 L 14.546875 -7.234375 L 14.34375 -6.34375 L 13.796875 -5.875 L 13.25 -5.5625 L 11.96875 -5.1875 L 11.015625 -5.140625 L 9.984375 -5.21875 L 9.203125 -5.421875 L 8.6875 -5.65625 L 8.0625 -6.03125 L 7.546875 -6.515625 L 7.03125 -7.203125 L 6.34375 -7.484375 L 3.734375 -7.546875 L 3.046875 -7.484375 L 2.375 -7.515625 L 1.6875 -7.203125 L 1.4375 -6.484375 L 1.515625 -5.734375 L 1.640625 -5.109375 L 2.203125 -3.734375 L 3.046875 -2.671875 L 4.046875 -1.6875 L 4.625 -1.296875 L 7.109375 -0.171875 L 7.859375 -0.0625 L 8.515625 0.171875 Z M 9.953125 0.28125 "/></g></g></g></svg>