<svg xmlns="http://www.w3.org/2000/svg" xmlns:xlink="http://www.w3.org/1999/xlink" zoomAndPan="magnify" preserveAspectRatio="xMidYMid meet" version="1.0" viewBox="89.85 145.73 211.48 87.75"><defs><g/><clipPath id="15647ad58b"><path d="M 164.175781 145.730469 L 301.335938 145.730469 L 301.335938 233.480469 L 164.175781 233.480469 Z M 164.175781 145.730469 " clip-rule="nonzero"/></clipPath></defs><g clip-path="url(#15647ad58b)"><path fill="#3853a1" d="M 300.238281 206.996094 C 300.238281 208.25 299.792969 211.28125 299.671875 211.644531 C 299.246094 212.71875 297.828125 214.210938 296.292969 215.273438 L 275.429688 229.75 C 273.578125 231.03125 270.160156 232.109375 267.972656 232.109375 L 168.300781 232.109375 C 166.523438 232.109375 165.457031 231.375 165.457031 230.132812 C 165.457031 229.824219 165.59375 229.488281 165.867188 229.117188 C 166.179688 229.542969 166.859375 229.917969 168.300781 229.917969 L 267.972656 229.917969 C 270.4375 229.917969 274.113281 228.785156 276.171875 227.363281 C 276.171875 227.363281 297.035156 212.917969 297.046875 212.910156 C 298.683594 211.777344 298.832031 210.078125 298.863281 208.226562 C 298.886719 206.75 298.859375 205.273438 298.859375 203.792969 C 298.859375 202.109375 298.863281 200.425781 298.863281 198.742188 C 298.863281 196.496094 298.863281 194.25 298.863281 192.003906 C 298.863281 189.554688 298.863281 187.101562 298.863281 184.648438 C 298.863281 182.0625 298.863281 179.472656 298.863281 176.882812 C 298.863281 174.367188 298.863281 171.855469 298.863281 169.34375 C 298.863281 167.046875 298.863281 164.753906 298.863281 162.457031 C 298.863281 160.558594 298.863281 158.660156 298.863281 156.761719 C 298.863281 155.402344 298.863281 154.042969 298.863281 152.683594 C 298.863281 152.082031 298.863281 151.480469 298.863281 150.878906 C 298.863281 150.835938 298.863281 150.789062 298.863281 150.746094 C 298.863281 149.386719 298.308594 148.136719 297.414062 147.222656 C 299.003906 147.632812 300.238281 149.050781 300.238281 150.746094 Z M 296.488281 145.730469 L 196.328125 145.730469 C 193.601562 145.730469 191.253906 148.019531 191.253906 150.746094 L 191.253906 208.714844 C 191.253906 208.722656 191.253906 208.730469 191.257812 208.738281 C 191.257812 209.25 191.402344 209.746094 191.550781 210.210938 C 191.03125 210.378906 190.535156 210.570312 190.066406 210.777344 C 189.289062 211.113281 188.585938 211.488281 188.007812 211.890625 L 167.152344 226.304688 C 167.046875 226.378906 166.949219 226.449219 166.855469 226.519531 C 165.007812 227.855469 164.175781 229.003906 164.175781 230.175781 C 164.175781 231.683594 165.253906 233.480469 168.300781 233.480469 L 267.972656 233.480469 C 270.421875 233.480469 274.082031 232.28125 276.152344 230.847656 L 297.003906 216.335938 C 298.355469 215.398438 300.132812 213.734375 300.773438 212.121094 C 300.984375 211.589844 301.335938 208.238281 301.335938 206.996094 L 301.335938 150.746094 C 301.335938 148.019531 299.214844 145.730469 296.488281 145.730469 " fill-opacity="1" fill-rule="nonzero"/></g><path fill="#fbfefe" d="M 293.976562 150.695312 C 293.339844 150.328125 292.605469 150.117188 291.820312 150.117188 L 198.574219 150.117188 C 196.199219 150.117188 194.273438 152.042969 194.273438 154.414062 L 194.273438 202.585938 C 194.273438 204.738281 195.855469 206.515625 197.917969 206.832031 C 198.132812 206.867188 198.351562 206.882812 198.574219 206.882812 L 291.855469 206.882812 C 291.917969 206.882812 291.980469 206.882812 292.042969 206.875 C 294.3125 206.761719 296.117188 204.886719 296.117188 202.585938 L 296.117188 154.414062 C 296.117188 152.824219 295.257812 151.441406 293.976562 150.695312 " fill-opacity="1" fill-rule="nonzero"/><path fill="#fbfefe" d="M 213.128906 223.441406 L 210.398438 225.367188 C 208.679688 226.519531 208.71875 227.535156 210.339844 227.773438 C 233.078125 225.984375 232.253906 221.90625 233.640625 221.140625 L 220.992188 220.953125 C 218.628906 220.953125 215.089844 222.121094 213.128906 223.441406 " fill-opacity="1" fill-rule="nonzero"/><path fill="#a0e0f4" d="M 197.917969 206.832031 C 198.132812 206.867188 198.351562 206.882812 198.574219 206.882812 L 291.855469 206.882812 C 291.917969 206.882812 291.980469 206.882812 292.042969 206.875 C 294.3125 206.761719 296.117188 204.886719 296.117188 202.585938 L 296.117188 154.414062 C 296.117188 152.824219 295.257812 151.441406 293.976562 150.695312 C 286.5 153.34375 281.089844 159.832031 275.089844 164.777344 C 273.039062 166.46875 270.941406 168.238281 268.5 169.363281 C 265.890625 170.5625 263.039062 171.03125 260.1875 171.292969 C 254.550781 171.808594 248.941406 172.117188 243.839844 174.785156 C 238.921875 177.355469 235.859375 181.085938 232.53125 185.300781 C 228.949219 189.839844 224.324219 192.304688 218.636719 193.660156 C 212.703125 195.074219 206.367188 195.496094 200.878906 198.289062 C 199.261719 199.109375 196.167969 200.320312 194.273438 201.996094 L 194.273438 202.695312 C 194.273438 204.792969 195.855469 206.527344 197.917969 206.832031 " fill-opacity="1" fill-rule="nonzero"/><path fill="#a0e0f4" d="M 241.5 221.140625 L 233.640625 221.140625 C 232.363281 221.855469 231.105469 222.660156 229.746094 223.410156 C 226.460938 225.214844 223.113281 225.28125 219.476562 225.300781 C 216.265625 225.320312 212.945312 225.722656 210.402344 227.722656 L 231.636719 227.722656 C 233.148438 227.722656 235.40625 227.027344 236.660156 226.179688 L 241.96875 222.640625 C 243.21875 221.800781 243.011719 221.140625 241.5 221.140625 " fill-opacity="1" fill-rule="nonzero"/><path fill="#a0e0f4" d="M 217.808594 216.78125 C 217.179688 217.203125 217.285156 217.578125 218.039062 217.578125 L 244.5 217.578125 C 245.253906 217.578125 246.382812 217.203125 247.011719 216.78125 L 247.503906 216.433594 C 248.132812 216.015625 248.027344 215.65625 247.269531 215.65625 L 220.8125 215.65625 C 220.058594 215.65625 218.925781 216.015625 218.300781 216.433594 L 217.808594 216.78125 " fill-opacity="1" fill-rule="nonzero"/><path fill="#a0e0f4" d="M 188.238281 217.578125 L 191.050781 217.578125 C 191.804688 217.578125 192.9375 217.203125 193.5625 216.78125 L 194.058594 216.433594 C 194.683594 216.015625 194.578125 215.65625 193.824219 215.65625 L 191.007812 215.65625 C 190.253906 215.65625 189.125 216.015625 188.496094 216.433594 L 188 216.78125 C 187.375 217.203125 187.480469 217.578125 188.238281 217.578125 " fill-opacity="1" fill-rule="nonzero"/><path fill="#a0e0f4" d="M 195.308594 216.78125 C 194.683594 217.203125 194.789062 217.578125 195.542969 217.578125 L 198.359375 217.578125 C 199.113281 217.578125 200.246094 217.203125 200.871094 216.78125 L 201.363281 216.433594 C 201.992188 216.015625 201.886719 215.65625 201.132812 215.65625 L 198.316406 215.65625 C 197.5625 215.65625 196.429688 216.015625 195.804688 216.433594 L 195.308594 216.78125 " fill-opacity="1" fill-rule="nonzero"/><path fill="#a0e0f4" d="M 202.90625 216.78125 C 202.277344 217.203125 202.382812 217.578125 203.140625 217.578125 L 205.953125 217.578125 C 206.707031 217.578125 207.839844 217.203125 208.464844 216.78125 L 208.960938 216.433594 C 209.585938 216.015625 209.480469 215.65625 208.726562 215.65625 L 205.910156 215.65625 C 205.15625 215.65625 204.027344 216.015625 203.398438 216.433594 L 202.90625 216.78125 " fill-opacity="1" fill-rule="nonzero"/><path fill="#a0e0f4" d="M 210.355469 216.78125 C 209.730469 217.203125 209.835938 217.578125 210.589844 217.578125 L 213.40625 217.578125 C 214.160156 217.578125 215.289062 217.203125 215.917969 216.78125 L 216.410156 216.433594 C 217.039062 216.015625 216.933594 215.65625 216.175781 215.65625 L 213.359375 215.65625 C 212.605469 215.65625 211.476562 216.015625 210.851562 216.433594 L 210.355469 216.78125 " fill-opacity="1" fill-rule="nonzero"/><path fill="#a0e0f4" d="M 249.136719 217.578125 L 251.949219 217.578125 C 252.707031 217.578125 253.835938 217.203125 254.460938 216.78125 L 254.957031 216.433594 C 255.582031 216.015625 255.476562 215.65625 254.722656 215.65625 L 251.90625 215.65625 C 251.152344 215.65625 250.023438 216.015625 249.394531 216.433594 L 248.902344 216.78125 C 248.273438 217.203125 248.378906 217.578125 249.136719 217.578125 " fill-opacity="1" fill-rule="nonzero"/><path fill="#a0e0f4" d="M 256.585938 217.578125 L 259.402344 217.578125 C 260.15625 217.578125 261.285156 217.203125 261.914062 216.78125 L 262.410156 216.433594 C 263.035156 216.015625 262.929688 215.65625 262.171875 215.65625 L 259.359375 215.65625 C 258.605469 215.65625 257.472656 216.015625 256.847656 216.433594 L 256.351562 216.78125 C 255.726562 217.203125 255.832031 217.578125 256.585938 217.578125 " fill-opacity="1" fill-rule="nonzero"/><path fill="#a0e0f4" d="M 264.039062 217.578125 L 266.851562 217.578125 C 267.609375 217.578125 268.738281 217.203125 269.363281 216.78125 L 269.859375 216.433594 C 270.484375 216.015625 270.378906 215.65625 269.625 215.65625 L 266.808594 215.65625 C 266.054688 215.65625 264.925781 216.015625 264.296875 216.433594 L 263.804688 216.78125 C 263.175781 217.203125 263.285156 217.578125 264.039062 217.578125 " fill-opacity="1" fill-rule="nonzero"/><path fill="#a0e0f4" d="M 271.488281 217.578125 L 274.304688 217.578125 C 275.058594 217.578125 276.191406 217.203125 276.816406 216.78125 L 277.308594 216.433594 C 277.9375 216.015625 277.832031 215.65625 277.078125 215.65625 L 274.261719 215.65625 C 273.503906 215.65625 272.375 216.015625 271.75 216.433594 L 271.253906 216.78125 C 270.628906 217.203125 270.734375 217.578125 271.488281 217.578125 " fill-opacity="1" fill-rule="nonzero"/><path fill="#a0e0f4" d="M 278.941406 217.578125 L 281.753906 217.578125 C 282.511719 217.578125 283.640625 217.203125 284.265625 216.78125 L 284.761719 216.433594 C 285.386719 216.015625 285.28125 215.65625 284.527344 215.65625 L 281.710938 215.65625 C 280.957031 215.65625 279.828125 216.015625 279.199219 216.433594 L 278.707031 216.78125 C 278.082031 217.203125 278.183594 217.578125 278.941406 217.578125 " fill-opacity="1" fill-rule="nonzero"/><path fill="#a0e0f4" d="M 202.421875 212.640625 L 199.605469 212.640625 C 198.851562 212.640625 197.71875 213 197.09375 213.421875 L 196.601562 213.769531 C 195.972656 214.191406 196.078125 214.558594 196.832031 214.558594 L 199.648438 214.558594 C 200.40625 214.558594 201.535156 214.191406 202.160156 213.769531 L 202.65625 213.421875 C 203.28125 213 203.175781 212.640625 202.421875 212.640625 " fill-opacity="1" fill-rule="nonzero"/><path fill="#a0e0f4" d="M 209.730469 212.640625 L 206.914062 212.640625 C 206.160156 212.640625 205.027344 213 204.402344 213.421875 L 203.90625 213.769531 C 203.28125 214.191406 203.386719 214.558594 204.140625 214.558594 L 206.957031 214.558594 C 207.710938 214.558594 208.84375 214.191406 209.46875 213.769531 L 209.964844 213.421875 C 210.589844 213 210.484375 212.640625 209.730469 212.640625 " fill-opacity="1" fill-rule="nonzero"/><path fill="#a0e0f4" d="M 217.425781 212.640625 L 214.613281 212.640625 C 213.859375 212.640625 212.726562 213 212.101562 213.421875 L 211.605469 213.769531 C 210.980469 214.191406 211.085938 214.558594 211.839844 214.558594 L 214.65625 214.558594 C 215.410156 214.558594 216.539062 214.191406 217.167969 213.769531 L 217.664062 213.421875 C 218.289062 213 218.183594 212.640625 217.425781 212.640625 " fill-opacity="1" fill-rule="nonzero"/><path fill="#a0e0f4" d="M 222.160156 214.558594 C 222.914062 214.558594 224.042969 214.191406 224.671875 213.769531 L 225.164062 213.421875 C 225.792969 213 225.683594 212.640625 224.929688 212.640625 L 222.117188 212.640625 C 221.359375 212.640625 220.230469 213 219.605469 213.421875 L 219.109375 213.769531 C 218.484375 214.191406 218.589844 214.558594 219.34375 214.558594 L 222.160156 214.558594 " fill-opacity="1" fill-rule="nonzero"/><path fill="#a0e0f4" d="M 229.664062 214.558594 C 230.417969 214.558594 231.546875 214.191406 232.171875 213.769531 L 232.667969 213.421875 C 233.292969 213 233.1875 212.640625 232.433594 212.640625 L 229.617188 212.640625 C 228.863281 212.640625 227.734375 213 227.105469 213.421875 L 226.613281 213.769531 C 225.988281 214.191406 226.09375 214.558594 226.847656 214.558594 L 229.664062 214.558594 " fill-opacity="1" fill-rule="nonzero"/><path fill="#a0e0f4" d="M 237.164062 214.558594 C 237.921875 214.558594 239.050781 214.191406 239.675781 213.769531 L 240.171875 213.421875 C 240.796875 213 240.691406 212.640625 239.9375 212.640625 L 237.121094 212.640625 C 236.367188 212.640625 235.238281 213 234.613281 213.421875 L 234.117188 213.769531 C 233.488281 214.191406 233.59375 214.558594 234.351562 214.558594 L 237.164062 214.558594 " fill-opacity="1" fill-rule="nonzero"/><path fill="#a0e0f4" d="M 244.667969 214.558594 C 245.421875 214.558594 246.554688 214.191406 247.179688 213.769531 L 247.675781 213.421875 C 248.300781 213 248.195312 212.640625 247.441406 212.640625 L 244.625 212.640625 C 243.871094 212.640625 242.742188 213 242.113281 213.421875 L 241.621094 213.769531 C 240.992188 214.191406 241.097656 214.558594 241.855469 214.558594 L 244.667969 214.558594 " fill-opacity="1" fill-rule="nonzero"/><path fill="#a0e0f4" d="M 252.171875 214.558594 C 252.925781 214.558594 254.058594 214.191406 254.683594 213.769531 L 255.179688 213.421875 C 255.804688 213 255.699219 212.640625 254.945312 212.640625 L 252.128906 212.640625 C 251.375 212.640625 250.242188 213 249.617188 213.421875 L 249.121094 213.769531 C 248.496094 214.191406 248.601562 214.558594 249.355469 214.558594 L 252.171875 214.558594 " fill-opacity="1" fill-rule="nonzero"/><path fill="#a0e0f4" d="M 259.675781 214.558594 C 260.429688 214.558594 261.558594 214.191406 262.1875 213.769531 L 262.683594 213.421875 C 263.308594 213 263.203125 212.640625 262.445312 212.640625 L 259.632812 212.640625 C 258.878906 212.640625 257.746094 213 257.121094 213.421875 L 256.625 213.769531 C 256 214.191406 256.105469 214.558594 256.859375 214.558594 L 259.675781 214.558594 " fill-opacity="1" fill-rule="nonzero"/><path fill="#a0e0f4" d="M 267.179688 214.558594 C 267.933594 214.558594 269.0625 214.191406 269.6875 213.769531 L 270.183594 213.421875 C 270.8125 213 270.707031 212.640625 269.949219 212.640625 L 267.136719 212.640625 C 266.378906 212.640625 265.25 213 264.625 213.421875 L 264.128906 213.769531 C 263.503906 214.191406 263.609375 214.558594 264.363281 214.558594 L 267.179688 214.558594 " fill-opacity="1" fill-rule="nonzero"/><path fill="#a0e0f4" d="M 274.878906 214.558594 C 275.632812 214.558594 276.761719 214.191406 277.386719 213.769531 L 277.882812 213.421875 C 278.511719 213 278.402344 212.640625 277.648438 212.640625 L 274.835938 212.640625 C 274.078125 212.640625 272.949219 213 272.324219 213.421875 L 271.828125 213.769531 C 271.203125 214.191406 271.308594 214.558594 272.0625 214.558594 L 274.878906 214.558594 " fill-opacity="1" fill-rule="nonzero"/><path fill="#a0e0f4" d="M 282.183594 214.558594 C 282.941406 214.558594 284.070312 214.191406 284.695312 213.769531 L 285.191406 213.421875 C 285.816406 213 285.710938 212.640625 284.957031 212.640625 L 282.140625 212.640625 C 281.386719 212.640625 280.257812 213 279.628906 213.421875 L 279.136719 213.769531 C 278.511719 214.191406 278.617188 214.558594 279.371094 214.558594 L 282.183594 214.558594 " fill-opacity="1" fill-rule="nonzero"/><path fill="#a0e0f4" d="M 184.390625 218.671875 L 282.117188 218.671875 L 282.117188 219.222656 L 184.390625 219.222656 L 184.390625 218.671875 " fill-opacity="1" fill-rule="nonzero"/><path fill="#a0e0f4" d="M 194.273438 209.898438 L 296.394531 209.898438 L 296.394531 210.171875 L 194.273438 210.171875 L 194.273438 209.898438 " fill-opacity="1" fill-rule="nonzero"/><path fill="#a0e0f4" d="M 297.96875 213.125 C 297.898438 213.03125 297.765625 213.007812 297.667969 213.074219 L 296.660156 213.769531 C 296.5625 213.839844 296.539062 213.972656 296.609375 214.070312 C 296.648438 214.128906 296.714844 214.160156 296.785156 214.160156 C 296.828125 214.160156 296.871094 214.148438 296.90625 214.125 L 297.914062 213.425781 C 298.011719 213.359375 298.035156 213.222656 297.96875 213.125 " fill-opacity="1" fill-rule="nonzero"/><path fill="#a0e0f4" d="M 282.21875 224.265625 L 281.976562 223.914062 L 286.421875 220.828125 L 286.667969 221.179688 L 282.21875 224.265625 " fill-opacity="1" fill-rule="nonzero"/><path fill="#a0e0f4" d="M 276.675781 228.105469 L 276.429688 227.753906 L 280.355469 225.027344 L 280.601562 225.382812 L 276.675781 228.105469 " fill-opacity="1" fill-rule="nonzero"/><path fill="#a0e0f4" d="M 245.117188 146.894531 C 245.722656 146.894531 246.214844 147.382812 246.214844 147.988281 C 246.214844 148.59375 245.722656 149.085938 245.117188 149.085938 C 244.511719 149.085938 244.019531 148.59375 244.019531 147.988281 C 244.019531 147.382812 244.511719 146.894531 245.117188 146.894531 " fill-opacity="1" fill-rule="nonzero"/><path stroke-linecap="butt" transform="matrix(0.75, 0, 0, 0.75, 50.013721, 150.79997)" fill="none" stroke-linejoin="miter" d="M 84.830669 51.834418 C 83.309836 52.490668 81.549419 52.959418 79.54421 53.240668 C 77.549418 53.527127 75.690043 53.67296 73.971293 53.67296 C 68.414001 53.67296 64.054626 52.219835 60.903584 49.318793 C 57.757751 46.412543 56.184834 41.954209 56.184834 35.943792 C 56.184834 29.818792 57.835876 25.23025 61.143167 22.183375 C 64.455668 19.141708 69.122335 17.620874 75.143168 17.620874 C 77.997335 17.620874 80.98171 18.001083 84.096294 18.771916 C 84.096294 19.589624 84.012961 20.808375 83.841086 22.422958 C 83.679627 24.04275 83.518169 25.172958 83.346294 25.824 L 79.48171 25.824 C 76.66921 25.824 74.45046 25.876083 72.835876 25.990667 C 71.216085 26.089625 70.247335 26.282333 69.914001 26.574 C 69.304626 27.141708 68.835876 28.29275 68.507751 30.032334 C 68.179626 31.766709 68.01296 33.433375 68.01296 35.032334 C 68.01296 37.808376 68.361918 39.943792 69.059835 41.438584 C 69.76296 42.928168 70.63796 43.922959 71.695251 44.422959 C 72.726501 44.907334 74.424418 45.152126 76.789002 45.152126 C 78.674419 45.152126 81.132752 44.990668 84.153586 44.662543 Z M 115.617129 26.574 C 115.986921 27.021917 116.262963 28.146917 116.440046 29.943792 C 116.622338 31.740667 116.710879 34.48025 116.710879 38.162542 L 116.710879 53.001085 L 106.226504 53.001085 L 106.226504 38.282334 C 106.226504 38.120876 106.226504 37.318792 106.226504 35.870876 C 106.226504 34.412542 106.122337 33.521917 105.914004 33.188584 C 105.794212 33.032334 105.497337 32.912542 105.028587 32.829209 C 104.559837 32.740667 104.023379 32.699 103.414004 32.699 L 102.367128 32.756292 C 101.216087 32.797959 100.028587 33.063584 98.79942 33.563584 L 98.79942 53.001085 L 88.320253 53.001085 L 88.320253 16.193791 L 98.79942 15.777124 L 98.79942 22.949 C 98.79942 25.891708 98.700462 27.85525 98.502545 28.834417 L 98.559837 28.891708 C 101.335878 25.751083 104.669212 24.178166 108.565046 24.178166 C 110.033796 24.178166 111.408796 24.381291 112.695254 24.79275 C 113.986921 25.199 114.955671 25.79275 115.617129 26.574 Z M 149.768173 24.79275 L 149.768173 53.001085 L 141.252548 53.001085 L 140.080673 48.282335 C 137.137964 51.839627 133.61713 53.615668 129.528589 53.615668 C 128.059838 53.615668 126.67963 53.407335 125.393172 53.001085 C 124.106713 52.589627 123.132755 51.995877 122.471296 51.219835 C 122.111921 50.76671 121.841088 49.646918 121.64838 47.850043 C 121.471296 46.053168 121.382755 43.313584 121.382755 39.631292 L 121.382755 24.79275 L 131.861922 24.79275 L 131.861922 39.511501 C 131.861922 40.329209 131.882755 41.292751 131.924422 42.396918 C 131.96088 43.495876 132.08588 44.188584 132.294214 44.480251 C 132.575464 44.891709 133.393172 45.094834 134.752547 45.094834 L 135.726506 45.032334 C 136.872339 44.985459 138.059839 44.714626 139.289006 44.225043 L 139.289006 24.79275 Z M 173.757758 24.178166 C 176.94005 24.178166 179.403592 25.141708 181.137967 27.068792 C 182.87755 28.985458 183.742134 32.370875 183.742134 37.235459 C 183.742134 40.797959 183.382759 43.834418 182.664009 46.350043 C 181.955675 48.855251 181.153592 50.459418 180.25255 51.157335 C 179.184842 52.01671 177.611925 52.652127 175.523383 53.058377 C 173.434841 53.469835 171.06505 53.67296 168.408799 53.67296 C 166.367133 53.67296 164.075466 53.51671 161.539007 53.209418 C 159.012965 52.912543 156.74734 52.433377 154.742132 51.771918 L 154.742132 16.193791 L 165.341091 15.777124 L 165.341091 21.54275 C 165.341091 21.870875 165.330674 22.631291 165.309841 23.818791 C 165.289008 24.995875 165.242133 25.985458 165.164008 26.782333 C 165.080674 27.579208 164.960883 28.183375 164.804633 28.594833 L 165.164008 29.0115 C 166.101508 27.584417 167.283799 26.422958 168.710883 25.521917 C 170.148383 24.626083 171.830675 24.178166 173.757758 24.178166 Z M 172.0338 46.324001 C 172.273383 45.912543 172.481716 44.949001 172.664008 43.433376 C 172.851508 41.912543 172.945258 40.464626 172.945258 39.074001 C 172.945258 37.438584 172.87755 36.152126 172.736925 35.209417 C 172.5963 34.271917 172.247341 33.532334 171.69005 32.98025 C 171.143175 32.422959 170.294216 32.141709 169.143174 32.141709 C 168.127549 32.141709 166.820258 32.287542 165.221299 32.579209 L 165.221299 46.443793 C 166.736924 46.683376 168.315049 46.803168 169.955675 46.803168 C 171.132758 46.803168 171.825466 46.64171 172.0338 46.324001 Z M 206.752552 24.178166 C 209.934844 24.178166 212.393177 25.141708 214.132761 27.068792 C 215.867136 28.985458 216.736928 32.370875 216.736928 37.235459 C 216.736928 40.797959 216.377553 43.834418 215.658803 46.350043 C 214.950469 48.855251 214.148386 50.459418 213.247344 51.157335 C 212.179636 52.01671 210.601511 52.652127 208.518177 53.058377 C 206.429635 53.469835 204.059843 53.67296 201.403593 53.67296 C 199.356718 53.67296 197.07026 53.51671 194.533801 53.209418 C 192.007759 52.912543 189.742134 52.433377 187.736926 51.771918 L 187.736926 16.193791 L 198.335885 15.777124 L 198.335885 21.54275 C 198.335885 21.870875 198.325468 22.631291 198.304635 23.818791 C 198.283801 24.995875 198.236926 25.985458 198.158801 26.782333 C 198.075468 27.579208 197.955676 28.183375 197.799426 28.594833 L 198.158801 29.0115 C 199.096301 27.584417 200.278593 26.422958 201.705677 25.521917 C 203.143177 24.626083 204.825468 24.178166 206.752552 24.178166 Z M 205.028594 46.324001 C 205.268177 45.912543 205.47651 44.949001 205.658802 43.433376 C 205.846302 41.912543 205.940052 40.464626 205.940052 39.074001 C 205.940052 37.438584 205.872344 36.152126 205.731719 35.209417 C 205.591094 34.271917 205.242135 33.532334 204.684843 32.98025 C 204.137968 32.422959 203.28901 32.141709 202.137968 32.141709 C 201.122343 32.141709 199.815052 32.287542 198.216093 32.579209 L 198.216093 46.443793 C 199.731718 46.683376 201.309843 46.803168 202.94526 46.803168 C 204.127552 46.803168 204.82026 46.64171 205.028594 46.324001 Z M 249.98693 24.79275 L 242.622346 48.402126 C 241.195263 52.933377 239.903596 56.23546 238.757762 58.29796 C 237.606721 60.365669 236.466096 61.808377 235.330679 62.626086 C 234.66922 63.079211 233.63797 63.422961 232.226512 63.662544 C 230.820262 63.912544 229.299428 64.037544 227.664012 64.037544 C 225.205678 64.037544 223.242136 63.808377 221.76297 63.360461 C 221.721303 62.381294 221.76297 61.183377 221.882761 59.76671 C 222.01297 58.36046 222.174428 57.167752 222.377553 56.188585 C 224.091095 56.26671 225.768178 56.308377 227.408803 56.308377 C 228.632762 56.308377 229.559845 56.287544 230.179637 56.251085 C 230.789012 55.063585 231.35672 53.813585 231.882762 52.506293 L 227.664012 52.26671 L 218.216094 24.79275 L 229.309845 24.79275 L 234.221304 44.542751 L 234.278595 45.709418 L 234.460887 45.709418 L 238.877554 24.79275 Z M 249.98693 24.79275 " stroke="#ffffff" stroke-width="4.599982" stroke-opacity="1" stroke-miterlimit="4"/><g fill="#004aad" fill-opacity="1"><g transform="translate(90.771531, 190.549967)"><g><path d="M 22.859375 -0.875 C 21.722656 -0.382812 20.40625 -0.0351562 18.90625 0.171875 C 17.40625 0.390625 16.007812 0.5 14.71875 0.5 C 10.550781 0.5 7.285156 -0.585938 4.921875 -2.765625 C 2.554688 -4.941406 1.375 -8.28125 1.375 -12.78125 C 1.375 -17.382812 2.613281 -20.828125 5.09375 -23.109375 C 7.582031 -25.398438 11.082031 -26.546875 15.59375 -26.546875 C 17.738281 -26.546875 19.976562 -26.253906 22.3125 -25.671875 C 22.3125 -25.054688 22.25 -24.140625 22.125 -22.921875 C 22 -21.710938 21.878906 -20.863281 21.765625 -20.375 L 18.859375 -20.375 C 16.742188 -20.375 15.078125 -20.332031 13.859375 -20.25 C 12.648438 -20.175781 11.925781 -20.035156 11.6875 -19.828125 C 11.226562 -19.398438 10.875 -18.53125 10.625 -17.21875 C 10.382812 -15.914062 10.265625 -14.671875 10.265625 -13.484375 C 10.265625 -11.390625 10.523438 -9.78125 11.046875 -8.65625 C 11.566406 -7.539062 12.222656 -6.800781 13.015625 -6.4375 C 13.785156 -6.070312 15.0625 -5.890625 16.84375 -5.890625 C 18.25 -5.890625 20.085938 -6.007812 22.359375 -6.25 Z M 22.859375 -0.875 "/></g></g></g><g fill="#004aad" fill-opacity="1"><g transform="translate(114.367541, 190.549967)"><g><path d="M 22.359375 -19.828125 C 22.628906 -19.484375 22.832031 -18.632812 22.96875 -17.28125 C 23.113281 -15.9375 23.1875 -13.882812 23.1875 -11.125 L 23.1875 0 L 15.3125 0 L 15.3125 -11.046875 C 15.3125 -11.160156 15.3125 -11.757812 15.3125 -12.84375 C 15.3125 -13.9375 15.238281 -14.609375 15.09375 -14.859375 C 15 -14.984375 14.773438 -15.070312 14.421875 -15.125 C 14.066406 -15.1875 13.660156 -15.21875 13.203125 -15.21875 L 12.421875 -15.1875 C 11.554688 -15.15625 10.664062 -14.953125 9.75 -14.578125 L 9.75 0 L 1.890625 0 L 1.890625 -27.59375 L 9.75 -27.921875 L 9.75 -22.546875 C 9.75 -20.335938 9.671875 -18.863281 9.515625 -18.125 L 9.5625 -18.078125 C 11.65625 -20.441406 14.15625 -21.625 17.0625 -21.625 C 18.164062 -21.625 19.203125 -21.46875 20.171875 -21.15625 C 21.140625 -20.851562 21.867188 -20.410156 22.359375 -19.828125 Z M 22.359375 -19.828125 "/></g></g></g><g fill="#004aad" fill-opacity="1"><g transform="translate(139.297441, 190.549967)"><g><path d="M 23.046875 -21.15625 L 23.046875 0 L 16.65625 0 L 15.78125 -3.546875 C 13.570312 -0.878906 10.929688 0.453125 7.859375 0.453125 C 6.753906 0.453125 5.71875 0.300781 4.75 0 C 3.789062 -0.300781 3.066406 -0.742188 2.578125 -1.328125 C 2.296875 -1.671875 2.085938 -2.515625 1.953125 -3.859375 C 1.816406 -5.210938 1.75 -7.269531 1.75 -10.03125 L 1.75 -21.15625 L 9.609375 -21.15625 L 9.609375 -10.125 C 9.609375 -9.507812 9.625 -8.785156 9.65625 -7.953125 C 9.6875 -7.128906 9.78125 -6.609375 9.9375 -6.390625 C 10.15625 -6.085938 10.769531 -5.9375 11.78125 -5.9375 L 12.515625 -5.984375 C 13.367188 -6.015625 14.257812 -6.210938 15.1875 -6.578125 L 15.1875 -21.15625 Z M 23.046875 -21.15625 "/></g></g></g><g fill="#004aad" fill-opacity="1"><g transform="translate(164.22734, 190.549967)"><g><path d="M 16.09375 -21.625 C 18.488281 -21.625 20.335938 -20.898438 21.640625 -19.453125 C 22.941406 -18.015625 23.59375 -15.472656 23.59375 -11.828125 C 23.59375 -9.148438 23.320312 -6.867188 22.78125 -4.984375 C 22.25 -3.097656 21.644531 -1.894531 20.96875 -1.375 C 20.175781 -0.726562 19 -0.253906 17.4375 0.046875 C 15.875 0.347656 14.09375 0.5 12.09375 0.5 C 10.5625 0.5 8.84375 0.382812 6.9375 0.15625 C 5.039062 -0.0703125 3.34375 -0.429688 1.84375 -0.921875 L 1.84375 -27.59375 L 9.796875 -27.921875 L 9.796875 -23.59375 C 9.796875 -23.351562 9.785156 -22.785156 9.765625 -21.890625 C 9.753906 -21.003906 9.71875 -20.257812 9.65625 -19.65625 C 9.59375 -19.0625 9.503906 -18.613281 9.390625 -18.3125 L 9.65625 -17.984375 C 10.363281 -19.054688 11.253906 -19.929688 12.328125 -20.609375 C 13.398438 -21.285156 14.65625 -21.625 16.09375 -21.625 Z M 14.8125 -5.015625 C 15 -5.316406 15.160156 -6.035156 15.296875 -7.171875 C 15.429688 -8.304688 15.5 -9.394531 15.5 -10.4375 C 15.5 -11.664062 15.445312 -12.628906 15.34375 -13.328125 C 15.238281 -14.035156 14.976562 -14.597656 14.5625 -15.015625 C 14.144531 -15.429688 13.507812 -15.640625 12.65625 -15.640625 C 11.882812 -15.640625 10.898438 -15.53125 9.703125 -15.3125 L 9.703125 -4.921875 C 10.835938 -4.734375 12.019531 -4.640625 13.25 -4.640625 C 14.132812 -4.640625 14.65625 -4.765625 14.8125 -5.015625 Z M 14.8125 -5.015625 "/></g></g></g><g fill="#004aad" fill-opacity="1"><g transform="translate(188.973253, 190.549967)"><g><path d="M 16.09375 -21.625 C 18.488281 -21.625 20.335938 -20.898438 21.640625 -19.453125 C 22.941406 -18.015625 23.59375 -15.472656 23.59375 -11.828125 C 23.59375 -9.148438 23.320312 -6.867188 22.78125 -4.984375 C 22.25 -3.097656 21.644531 -1.894531 20.96875 -1.375 C 20.175781 -0.726562 19 -0.253906 17.4375 0.046875 C 15.875 0.347656 14.09375 0.5 12.09375 0.5 C 10.5625 0.5 8.84375 0.382812 6.9375 0.15625 C 5.039062 -0.0703125 3.34375 -0.429688 1.84375 -0.921875 L 1.84375 -27.59375 L 9.796875 -27.921875 L 9.796875 -23.59375 C 9.796875 -23.351562 9.785156 -22.785156 9.765625 -21.890625 C 9.753906 -21.003906 9.71875 -20.257812 9.65625 -19.65625 C 9.59375 -19.0625 9.503906 -18.613281 9.390625 -18.3125 L 9.65625 -17.984375 C 10.363281 -19.054688 11.253906 -19.929688 12.328125 -20.609375 C 13.398438 -21.285156 14.65625 -21.625 16.09375 -21.625 Z M 14.8125 -5.015625 C 15 -5.316406 15.160156 -6.035156 15.296875 -7.171875 C 15.429688 -8.304688 15.5 -9.394531 15.5 -10.4375 C 15.5 -11.664062 15.445312 -12.628906 15.34375 -13.328125 C 15.238281 -14.035156 14.976562 -14.597656 14.5625 -15.015625 C 14.144531 -15.429688 13.507812 -15.640625 12.65625 -15.640625 C 11.882812 -15.640625 10.898438 -15.53125 9.703125 -15.3125 L 9.703125 -4.921875 C 10.835938 -4.734375 12.019531 -4.640625 13.25 -4.640625 C 14.132812 -4.640625 14.65625 -4.765625 14.8125 -5.015625 Z M 14.8125 -5.015625 "/></g></g></g><g fill="#004aad" fill-opacity="1"><g transform="translate(213.719166, 190.549967)"><g><path d="M 23.78125 -21.15625 L 18.265625 -3.453125 C 17.191406 -0.046875 16.222656 2.425781 15.359375 3.96875 C 14.503906 5.519531 13.644531 6.601562 12.78125 7.21875 C 12.289062 7.5625 11.515625 7.820312 10.453125 8 C 9.398438 8.1875 8.257812 8.28125 7.03125 8.28125 C 5.195312 8.28125 3.726562 8.113281 2.625 7.78125 C 2.59375 7.039062 2.625 6.140625 2.71875 5.078125 C 2.8125 4.023438 2.929688 3.128906 3.078125 2.390625 C 4.367188 2.453125 5.628906 2.484375 6.859375 2.484375 C 7.773438 2.484375 8.460938 2.46875 8.921875 2.4375 C 9.378906 1.550781 9.8125 0.613281 10.21875 -0.375 L 7.03125 -0.546875 L -0.046875 -21.15625 L 8.28125 -21.15625 L 11.953125 -6.34375 L 12 -5.46875 L 12.140625 -5.46875 L 15.453125 -21.15625 Z M 23.78125 -21.15625 "/></g></g></g><path fill="#3853a1" d="M 103.308594 200.800781 L 179.988281 200.800781 C 182.414062 200.800781 184.378906 202.765625 184.378906 205.1875 L 184.378906 213.960938 C 184.378906 216.386719 182.414062 218.351562 179.988281 218.351562 L 103.308594 218.351562 C 100.886719 218.351562 98.921875 216.386719 98.921875 213.960938 L 98.921875 205.1875 C 98.921875 202.765625 100.886719 200.800781 103.308594 200.800781 Z M 103.308594 200.800781 " fill-opacity="1" fill-rule="nonzero"/><g fill="#ffffff" fill-opacity="1"><g transform="translate(105.28153, 212.950006)"><g><path d="M 8.09375 -4.21875 C 8.09375 -3.363281 7.925781 -2.613281 7.59375 -1.96875 C 7.257812 -1.332031 6.785156 -0.84375 6.171875 -0.5 C 5.566406 -0.164062 4.867188 0 4.078125 0 L 0.984375 0 L 0.984375 -8.25 L 3.71875 -8.25 C 5.113281 -8.25 6.191406 -7.898438 6.953125 -7.203125 C 7.710938 -6.503906 8.09375 -5.507812 8.09375 -4.21875 Z M 6.96875 -4.21875 C 6.96875 -5.238281 6.6875 -6.015625 6.125 -6.546875 C 5.5625 -7.085938 4.75 -7.359375 3.6875 -7.359375 L 2.109375 -7.359375 L 2.109375 -0.890625 L 3.9375 -0.890625 C 4.550781 -0.890625 5.085938 -1.019531 5.546875 -1.28125 C 6.003906 -1.550781 6.351562 -1.9375 6.59375 -2.4375 C 6.84375 -2.9375 6.96875 -3.53125 6.96875 -4.21875 Z M 6.96875 -4.21875 "/></g></g></g><g fill="#ffffff" fill-opacity="1"><g transform="translate(117.067545, 212.950006)"><g><path d="M 0.984375 0 L 0.984375 -8.25 L 7.25 -8.25 L 7.25 -7.34375 L 2.109375 -7.34375 L 2.109375 -4.6875 L 6.890625 -4.6875 L 6.890625 -3.796875 L 2.109375 -3.796875 L 2.109375 -0.921875 L 7.484375 -0.921875 L 7.484375 0 Z M 0.984375 0 "/></g></g></g><g fill="#ffffff" fill-opacity="1"><g transform="translate(128.19145, 212.950006)"><g><path d="M 7.453125 -2.28125 C 7.453125 -1.519531 7.15625 -0.925781 6.5625 -0.5 C 5.96875 -0.0820312 5.128906 0.125 4.046875 0.125 C 2.035156 0.125 0.867188 -0.578125 0.546875 -1.984375 L 1.625 -2.203125 C 1.75 -1.703125 2.015625 -1.332031 2.421875 -1.09375 C 2.828125 -0.863281 3.378906 -0.75 4.078125 -0.75 C 4.804688 -0.75 5.363281 -0.875 5.75 -1.125 C 6.144531 -1.375 6.34375 -1.738281 6.34375 -2.21875 C 6.34375 -2.488281 6.28125 -2.707031 6.15625 -2.875 C 6.039062 -3.039062 5.867188 -3.175781 5.640625 -3.28125 C 5.421875 -3.394531 5.15625 -3.488281 4.84375 -3.5625 C 4.539062 -3.644531 4.203125 -3.726562 3.828125 -3.8125 C 3.171875 -3.957031 2.671875 -4.097656 2.328125 -4.234375 C 1.992188 -4.378906 1.726562 -4.539062 1.53125 -4.71875 C 1.34375 -4.90625 1.195312 -5.113281 1.09375 -5.34375 C 0.988281 -5.582031 0.9375 -5.859375 0.9375 -6.171875 C 0.9375 -6.878906 1.207031 -7.421875 1.75 -7.796875 C 2.289062 -8.179688 3.0625 -8.375 4.0625 -8.375 C 5 -8.375 5.71875 -8.226562 6.21875 -7.9375 C 6.71875 -7.65625 7.066406 -7.171875 7.265625 -6.484375 L 6.15625 -6.28125 C 6.039062 -6.71875 5.8125 -7.035156 5.46875 -7.234375 C 5.125 -7.429688 4.65625 -7.53125 4.0625 -7.53125 C 3.394531 -7.53125 2.882812 -7.421875 2.53125 -7.203125 C 2.1875 -6.984375 2.015625 -6.660156 2.015625 -6.234375 C 2.015625 -5.972656 2.082031 -5.757812 2.21875 -5.59375 C 2.351562 -5.425781 2.546875 -5.285156 2.796875 -5.171875 C 3.054688 -5.054688 3.566406 -4.914062 4.328125 -4.75 C 4.578125 -4.695312 4.828125 -4.640625 5.078125 -4.578125 C 5.335938 -4.515625 5.582031 -4.441406 5.8125 -4.359375 C 6.039062 -4.273438 6.253906 -4.175781 6.453125 -4.0625 C 6.648438 -3.945312 6.820312 -3.804688 6.96875 -3.640625 C 7.125 -3.484375 7.242188 -3.289062 7.328125 -3.0625 C 7.410156 -2.84375 7.453125 -2.582031 7.453125 -2.28125 Z M 7.453125 -2.28125 "/></g></g></g><g fill="#ffffff" fill-opacity="1"><g transform="translate(139.315355, 212.950006)"><g><path d="M 1.109375 0 L 1.109375 -8.25 L 2.234375 -8.25 L 2.234375 0 Z M 1.109375 0 "/></g></g></g><g fill="#ffffff" fill-opacity="1"><g transform="translate(145.769339, 212.950006)"><g><path d="M 0.609375 -4.171875 C 0.609375 -5.503906 0.96875 -6.535156 1.6875 -7.265625 C 2.40625 -8.003906 3.414062 -8.375 4.71875 -8.375 C 5.625 -8.375 6.363281 -8.21875 6.9375 -7.90625 C 7.507812 -7.601562 7.945312 -7.113281 8.25 -6.4375 L 7.1875 -6.125 C 6.957031 -6.59375 6.632812 -6.929688 6.21875 -7.140625 C 5.8125 -7.359375 5.300781 -7.46875 4.6875 -7.46875 C 3.726562 -7.46875 2.992188 -7.175781 2.484375 -6.59375 C 1.984375 -6.019531 1.734375 -5.210938 1.734375 -4.171875 C 1.734375 -3.128906 2 -2.304688 2.53125 -1.703125 C 3.070312 -1.097656 3.816406 -0.796875 4.765625 -0.796875 C 5.304688 -0.796875 5.804688 -0.875 6.265625 -1.03125 C 6.734375 -1.195312 7.113281 -1.421875 7.40625 -1.703125 L 7.40625 -3.1875 L 4.9375 -3.1875 L 4.9375 -4.125 L 8.4375 -4.125 L 8.4375 -1.28125 C 8 -0.832031 7.460938 -0.484375 6.828125 -0.234375 C 6.191406 0.00390625 5.503906 0.125 4.765625 0.125 C 3.898438 0.125 3.15625 -0.046875 2.53125 -0.390625 C 1.90625 -0.742188 1.425781 -1.242188 1.09375 -1.890625 C 0.769531 -2.535156 0.609375 -3.296875 0.609375 -4.171875 Z M 0.609375 -4.171875 "/></g></g></g><g fill="#ffffff" fill-opacity="1"><g transform="translate(158.223325, 212.950006)"><g><path d="M 6.34375 0 L 1.921875 -7.03125 L 1.953125 -6.46875 L 1.984375 -5.484375 L 1.984375 0 L 0.984375 0 L 0.984375 -8.25 L 2.28125 -8.25 L 6.75 -1.171875 C 6.707031 -1.941406 6.6875 -2.5 6.6875 -2.84375 L 6.6875 -8.25 L 7.6875 -8.25 L 7.6875 0 Z M 6.34375 0 "/></g></g></g><g fill="#ffffff" fill-opacity="1"><g transform="translate(170.009343, 212.950006)"><g><path d="M 7.453125 -2.28125 C 7.453125 -1.519531 7.15625 -0.925781 6.5625 -0.5 C 5.96875 -0.0820312 5.128906 0.125 4.046875 0.125 C 2.035156 0.125 0.867188 -0.578125 0.546875 -1.984375 L 1.625 -2.203125 C 1.75 -1.703125 2.015625 -1.332031 2.421875 -1.09375 C 2.828125 -0.863281 3.378906 -0.75 4.078125 -0.75 C 4.804688 -0.75 5.363281 -0.875 5.75 -1.125 C 6.144531 -1.375 6.34375 -1.738281 6.34375 -2.21875 C 6.34375 -2.488281 6.28125 -2.707031 6.15625 -2.875 C 6.039062 -3.039062 5.867188 -3.175781 5.640625 -3.28125 C 5.421875 -3.394531 5.15625 -3.488281 4.84375 -3.5625 C 4.539062 -3.644531 4.203125 -3.726562 3.828125 -3.8125 C 3.171875 -3.957031 2.671875 -4.097656 2.328125 -4.234375 C 1.992188 -4.378906 1.726562 -4.539062 1.53125 -4.71875 C 1.34375 -4.90625 1.195312 -5.113281 1.09375 -5.34375 C 0.988281 -5.582031 0.9375 -5.859375 0.9375 -6.171875 C 0.9375 -6.878906 1.207031 -7.421875 1.75 -7.796875 C 2.289062 -8.179688 3.0625 -8.375 4.0625 -8.375 C 5 -8.375 5.71875 -8.226562 6.21875 -7.9375 C 6.71875 -7.65625 7.066406 -7.171875 7.265625 -6.484375 L 6.15625 -6.28125 C 6.039062 -6.71875 5.8125 -7.035156 5.46875 -7.234375 C 5.125 -7.429688 4.65625 -7.53125 4.0625 -7.53125 C 3.394531 -7.53125 2.882812 -7.421875 2.53125 -7.203125 C 2.1875 -6.984375 2.015625 -6.660156 2.015625 -6.234375 C 2.015625 -5.972656 2.082031 -5.757812 2.21875 -5.59375 C 2.351562 -5.425781 2.546875 -5.285156 2.796875 -5.171875 C 3.054688 -5.054688 3.566406 -4.914062 4.328125 -4.75 C 4.578125 -4.695312 4.828125 -4.640625 5.078125 -4.578125 C 5.335938 -4.515625 5.582031 -4.441406 5.8125 -4.359375 C 6.039062 -4.273438 6.253906 -4.175781 6.453125 -4.0625 C 6.648438 -3.945312 6.820312 -3.804688 6.96875 -3.640625 C 7.125 -3.484375 7.242188 -3.289062 7.328125 -3.0625 C 7.410156 -2.84375 7.453125 -2.582031 7.453125 -2.28125 Z M 7.453125 -2.28125 "/></g></g></g></svg>